<?xml version="1.0" encoding="utf-8"?>
<!-- Generator: Adobe Illustrator 15.0.2, SVG Export Plug-In . SVG Version: 6.00 Build 0)  -->
<!DOCTYPE svg PUBLIC "-//W3C//DTD SVG 1.1//EN" "http://www.w3.org/Graphics/SVG/1.1/DTD/svg11.dtd">
<svg version="1.1" id="Layer_1" xmlns="http://www.w3.org/2000/svg" xmlns:xlink="http://www.w3.org/1999/xlink" x="0px" y="0px"
	 width="234.792px" height="297.737px" viewBox="0 0 234.792 297.737" enable-background="new 0 0 234.792 297.737"
	 xml:space="preserve">
<g>
	<g>
		<path fill="#E24F25" d="M194.792,243.181c0,0-12.077,5.727-20.624,7.939c0,0,2.313,31.038,16.921,35.03
			c0,0,8.86,1.062,13.712-6.155c0,0,17.282,3.045,20.131-10.452c0,0,10.736-4.274,9.803-10.046
			c-0.012-0.093-0.443-2.373-0.464-2.468c-0.167-0.736-0.118,0.69-0.715-0.087C228.154,249.925,194.792,243.181,194.792,243.181z"/>
		<path fill="#F26922" d="M194.369,240.942c0,0-10.686,5.453-19.232,7.666c0,0,0.924,31.313,15.531,35.305
			c0,0,8.857,1.063,13.711-6.155c0,0,17.282,3.044,20.131-10.452c0,0,14.024-5.583,8.624-12.602
			C227.732,247.688,194.369,240.942,194.369,240.942z"/>
	</g>
	<g>
		<path fill="#E24F25" d="M103.246,256.31c0,0,13.134,2.197,21.948,1.981c0,0,5.909,30.534-7.117,38.394
			c0,0-8.253,3.459-14.821-2.161c0,0-15.85,7.681-22.134-4.536c0,0-11.462-1.169-12.076-6.983c-0.01-0.095-0.195-2.409-0.198-2.505
			c-0.035-0.756,0.292,0.633,0.666-0.281C72.875,271.974,103.246,256.31,103.246,256.31z"/>
		<path fill="#F26922" d="M103.064,254.038c0,0,11.724,2.314,20.538,2.099c0,0,7.32,30.419-5.704,38.276
			c0,0-8.255,3.458-14.822-2.161c0,0-15.85,7.682-22.132-4.536c0,0-14.974-1.526-11.612-9.77
			C72.693,269.703,103.064,254.038,103.064,254.038z"/>
	</g>
	<path fill="#FFE41B" d="M182.259,98.256c0,0-14.778,43.346,5.911,50.806c36.519,13.166,34.633,62.442,34.633,62.442
		s3.16,21.252-17.187,40.393s-55.668,22.283-91.823,22.848c-36.157,0.563-58.43-8.023-83.862-22.66
		C4.497,237.448,1.06,215.212,0.099,194.382c-0.964-20.83,5.086-44.475,19.934-68.542c14.847-24.066,32.032-6.614,32.032-6.614
		l23.887,11.493c-4.536-13.652-15.195-41.247-7.906-62.499c7.286-21.252,23.059-36.385,53.033-36.395
		c26.535-0.01,39.666,17.829,44.234,25.474c14.294,23.924,9.378,37.147,9.378,37.147"/>
	
		<linearGradient id="SVGID_1_" gradientUnits="userSpaceOnUse" x1="-182.5601" y1="170.7813" x2="-173.4462" y2="266.8913" gradientTransform="matrix(-0.9768 0 0 1 -64.0265 0)">
		<stop  offset="0" style="stop-color:#FFFFFF"/>
		<stop  offset="1" style="stop-color:#000000"/>
	</linearGradient>
	<path opacity="0.2" fill="url(#SVGID_1_)" d="M182.259,98.256c0,0-14.778,43.346,5.911,50.806
		c36.519,13.166,34.633,62.442,34.633,62.442s3.16,21.252-17.187,40.393s-55.668,22.283-91.823,22.848
		c-36.157,0.563-58.43-8.023-83.862-22.66C4.497,237.448,1.06,215.212,0.099,194.382c-0.964-20.83,5.086-44.475,19.934-68.542
		c14.847-24.066,32.032-6.614,32.032-6.614l23.887,11.493c-4.536-13.652-15.195-41.247-7.906-62.499
		c7.286-21.252,23.059-36.385,53.033-36.395c26.535-0.01,39.666,17.829,44.234,25.474c14.294,23.924,9.378,37.147,9.378,37.147"/>
	<path fill="#FFE41B" d="M115.215,32.82c0,0-2.48-4.521,0.993-6.761c0,0-4.636,0.743-5,5.257c0,0-1.127-4.912-2.89-6.214
		c0,0-0.609,5.959-1.633,6.989c0,0-2.748-2.098-1.679-5.719c0,0-4.232,5.536-3.075,7.785
		C101.932,34.157,108.466,36.434,115.215,32.82z"/>
	<g>
		<path fill="#E24F25" d="M110.764,133.731c0,0,5.201,10.474,19.466,15.057c14.265,4.58,21.036,4.353,32.743,4.385
			c11.707,0.033,22.448-3.302,28.04-6.005c5.591-2.704,9.218-11.688,9.384-15.106c0.169-3.418-16.14,6.679-16.14,6.679
			l-26.716-1.828l-36.034-2.386L110.764,133.731z"/>
		<path fill="#F15A22" d="M193.498,118.388c0,0,8.914,8.984,6.477,15.343c-2.438,6.361-9.971,8.507-18.358,9.381
			c-8.388,0.875-34.825-0.785-54.147-5.639l-6.643-1.6l53.879-13.987L193.498,118.388z"/>
		<path fill="#E24F25" d="M193.616,118.604c0,0,9.672-1.681,11.583-7.683c1.912-6.001-1.473-13.756-4.914-17.931
			c0,0-1.727-1.628-4.464-2.998c-2.741-1.37-4.843-1.384-4.843-1.384l-6.694,2.226l-12.172,9.534l-6.437,8.48l-8.668,10.438
			l-5.988,6.329l-7.266,3.588l-9.621,2.976l-10.515,2.258h-8.773l-3.392,0.11c0,0,2.063,2.938,22.09,0.853
			c0,0,14.182-1.875,26.119-6.905C171.599,123.462,183.771,120.531,193.616,118.604z"/>
		<path fill="#F26922" d="M170.009,89.735c0,0-8.478-6.916-14.913-3.392c-6.436,3.522-8.156,5.871-19.752,17.156
			c-11.6,11.286-18.735,19.897-18.735,19.897s-8.922,8.937-4.717,11.481c4.206,2.544,22.112,0.26,32.625-4.109
			c10.516-4.371,16.25-11.938,22.432-20.745c6.182-8.807,14.4-16.375,19.69-19.18c5.29-2.805,9.177-0.848,9.177-0.848
			s-4.203-3.262-12.236,0.196C175.553,93.649,173.83,92.018,170.009,89.735z"/>
	</g>
	<path fill="#F6851F" d="M163.308,88.909c0,0-2.589-3.456-6.374-0.975c-3.231,2.121-1.398,6.3,3.298,8.476
		c4.649,2.153,10.258,1.8,15.022,0.825c0,0,3.587-3.135,7.031-5.25C182.285,91.984,173.002,96.559,163.308,88.909z"/>
	<path fill-rule="evenodd" clip-rule="evenodd" fill="#F36B27" d="M189.543,125.763c0,0,7.74-1.93,9.393,3.435
		c1.652,5.363-10.463,12.229-19.322,12.317c-8.86,0.089-32.386-2.862-20.777-6.684C170.445,131.009,189.543,125.763,189.543,125.763
		z"/>
	<path fill-rule="evenodd" clip-rule="evenodd" fill="#FDE923" d="M139.105,37.14c0,0,10.77,3.814,10.77,10.736
		c0,8.377-18.339,7.478-38.982,3.855c-20.643-3.622-22.658-3.576-15.099-9.428c5.088-3.938,13.039-9.251,24.507-9.122
		C125.87,33.245,130.32,33.591,139.105,37.14z"/>
	<g opacity="0.25">
		<path fill="#F1E4EB" d="M113.711,83.929c4.179,10.207,12.479,15.809,19.83,12.698c7.35-3.11,9.562-13.579,5.383-23.784
			c-4.175-10.206-13.158-16.288-20.509-13.176C111.063,62.777,109.537,73.723,113.711,83.929z"/>
		<path fill="#F1E4EB" d="M113.711,83.929c4.179,10.207,12.479,15.809,19.83,12.698c7.35-3.11,9.562-13.579,5.383-23.784
			c-4.175-10.206-13.158-16.288-20.509-13.176C111.063,62.777,109.537,73.723,113.711,83.929z"/>
		<path fill="#F1E4EB" d="M113.711,83.929c4.179,10.207,12.479,15.809,19.83,12.698c7.35-3.11,9.562-13.579,5.383-23.784
			c-4.175-10.206-13.158-16.288-20.509-13.176C111.063,62.777,109.537,73.723,113.711,83.929z"/>
		<path fill="#F1E4EB" d="M113.711,83.929c4.179,10.207,12.479,15.809,19.83,12.698c7.35-3.11,9.562-13.579,5.383-23.784
			c-4.175-10.206-13.158-16.288-20.509-13.176C111.063,62.777,109.537,73.723,113.711,83.929z"/>
		<path fill="#F1E4EB" d="M113.711,83.929c4.179,10.207,12.479,15.809,19.83,12.698c7.35-3.11,9.562-13.579,5.383-23.784
			c-4.175-10.206-13.158-16.288-20.509-13.176C111.063,62.777,109.537,73.723,113.711,83.929z"/>
		<path fill="#F1E4EB" d="M113.711,83.929c4.179,10.207,12.479,15.809,19.83,12.698c7.35-3.11,9.562-13.579,5.383-23.784
			c-4.175-10.206-13.158-16.288-20.509-13.176C111.063,62.777,109.537,73.723,113.711,83.929z"/>
		<path fill="#F1E4EB" d="M113.711,83.929c4.179,10.207,12.479,15.809,19.83,12.698c7.35-3.11,9.562-13.579,5.383-23.784
			c-4.175-10.206-13.158-16.288-20.509-13.176C111.063,62.777,109.537,73.723,113.711,83.929z"/>
		<path fill="#F1E4EB" d="M113.711,83.929c4.179,10.207,12.479,15.809,19.83,12.698c7.35-3.11,9.562-13.579,5.383-23.784
			c-4.175-10.206-13.158-16.288-20.509-13.176C111.063,62.777,109.537,73.723,113.711,83.929z"/>
		<path fill="#F1E4EB" d="M113.711,83.929c4.179,10.207,12.479,15.809,19.83,12.698c7.35-3.11,9.562-13.579,5.383-23.784
			c-4.175-10.206-13.158-16.288-20.509-13.176C111.063,62.777,109.537,73.723,113.711,83.929z"/>
		<path fill="#F1E4EB" d="M113.711,83.929c4.179,10.207,12.479,15.809,19.83,12.698c7.35-3.11,9.562-13.579,5.383-23.784
			c-4.175-10.206-13.158-16.288-20.509-13.176C111.063,62.777,109.537,73.723,113.711,83.929z"/>
		<path fill="#F1E4EB" d="M113.711,83.929c4.179,10.207,12.479,15.809,19.83,12.698c7.35-3.11,9.562-13.579,5.383-23.784
			c-4.175-10.206-13.158-16.288-20.509-13.176C111.063,62.777,109.537,73.723,113.711,83.929z"/>
		<path fill="#F1E4EB" d="M113.711,83.929c4.179,10.207,12.479,15.809,19.83,12.698c7.35-3.11,9.562-13.579,5.383-23.784
			c-4.175-10.206-13.158-16.288-20.509-13.176C111.063,62.777,109.537,73.723,113.711,83.929z"/>
		<path fill="#F1E4EB" d="M113.711,83.929c4.179,10.207,12.479,15.809,19.83,12.698c7.35-3.11,9.562-13.579,5.383-23.784
			c-4.175-10.206-13.158-16.288-20.509-13.176C111.063,62.777,109.537,73.723,113.711,83.929z"/>
		<path fill="#F1E4EB" d="M113.711,83.929c4.179,10.207,12.479,15.809,19.83,12.698c7.35-3.11,9.562-13.579,5.383-23.784
			c-4.175-10.206-13.158-16.288-20.509-13.176C111.063,62.777,109.537,73.723,113.711,83.929z"/>
		<path fill="#F1E4EB" d="M113.711,83.929c4.179,10.207,12.479,15.809,19.83,12.698c7.35-3.11,9.562-13.579,5.383-23.784
			c-4.175-10.206-13.158-16.288-20.509-13.176C111.063,62.777,109.537,73.723,113.711,83.929z"/>
		<path fill="#F1E4EB" d="M113.711,83.929c4.179,10.207,12.479,15.809,19.83,12.698c7.35-3.11,9.562-13.579,5.383-23.784
			c-4.175-10.206-13.158-16.288-20.509-13.176C111.063,62.777,109.537,73.723,113.711,83.929z"/>
		<path fill="#F1E4EB" d="M113.711,83.929c4.179,10.207,12.479,15.809,19.83,12.698c7.35-3.11,9.562-13.579,5.383-23.784
			c-4.175-10.206-13.158-16.288-20.509-13.176C111.063,62.777,109.537,73.723,113.711,83.929z"/>
		<path fill="#F1E4EB" d="M113.711,83.929c4.179,10.207,12.479,15.809,19.83,12.698c7.35-3.11,9.562-13.579,5.383-23.784
			c-4.175-10.206-13.158-16.288-20.509-13.176C111.063,62.777,109.537,73.723,113.711,83.929z"/>
		<path fill="#F1E4EB" d="M113.711,83.929c4.179,10.207,12.479,15.809,19.83,12.698c7.35-3.11,9.562-13.579,5.383-23.784
			c-4.175-10.206-13.158-16.288-20.509-13.176C111.063,62.777,109.537,73.723,113.711,83.929z"/>
		<path fill="#F1E4EB" d="M113.711,83.929c4.179,10.207,12.479,15.809,19.83,12.698c7.35-3.11,9.562-13.579,5.383-23.784
			c-4.175-10.206-13.158-16.288-20.509-13.176C111.063,62.777,109.537,73.723,113.711,83.929z"/>
		<path fill="#F1E4EB" d="M113.711,83.929c4.179,10.207,12.479,15.809,19.83,12.698c7.35-3.11,9.562-13.579,5.383-23.784
			c-4.175-10.206-13.158-16.288-20.509-13.176C111.063,62.777,109.537,73.723,113.711,83.929z"/>
		<path fill="#F1E4EB" d="M113.711,83.929c4.179,10.207,12.479,15.809,19.83,12.698c7.35-3.11,9.562-13.579,5.383-23.784
			c-4.175-10.206-13.158-16.288-20.509-13.176C111.063,62.777,109.537,73.723,113.711,83.929z"/>
		<path fill="#F1E4EB" d="M113.711,83.929c4.179,10.207,12.479,15.809,19.83,12.698c7.35-3.11,9.562-13.579,5.383-23.784
			c-4.175-10.206-13.158-16.288-20.509-13.176C111.063,62.777,109.537,73.723,113.711,83.929z"/>
		<path fill="#F1E4EB" d="M113.711,83.929c4.179,10.207,12.479,15.809,19.83,12.698c7.35-3.11,9.562-13.579,5.383-23.784
			c-4.175-10.206-13.158-16.288-20.509-13.176C111.063,62.777,109.537,73.723,113.711,83.929z"/>
		<path fill="#F1E4EB" d="M113.711,83.929c4.179,10.207,12.479,15.809,19.83,12.698c7.35-3.11,9.562-13.579,5.383-23.784
			c-4.175-10.206-13.158-16.288-20.509-13.176C111.063,62.777,109.537,73.723,113.711,83.929z"/>
		<path fill="#F1E4EB" d="M113.711,83.929c4.179,10.207,12.479,15.809,19.83,12.698c7.35-3.11,9.562-13.579,5.383-23.784
			c-4.175-10.206-13.158-16.288-20.509-13.176C111.063,62.777,109.537,73.723,113.711,83.929z"/>
		<path fill="#F1E4EB" d="M113.711,83.929c4.179,10.207,12.479,15.809,19.83,12.698c7.35-3.11,9.562-13.579,5.383-23.784
			c-4.175-10.206-13.158-16.288-20.509-13.176C111.063,62.777,109.537,73.723,113.711,83.929z"/>
		<path fill="#F1E4EB" d="M113.711,83.929c4.179,10.207,12.479,15.809,19.83,12.698c7.35-3.11,9.562-13.579,5.383-23.784
			c-4.175-10.206-13.158-16.288-20.509-13.176C111.063,62.777,109.537,73.723,113.711,83.929z"/>
		<path fill="#F1E4EB" d="M113.711,83.929c4.179,10.207,12.479,15.809,19.83,12.698c7.35-3.11,9.562-13.579,5.383-23.784
			c-4.175-10.206-13.158-16.288-20.509-13.176C111.063,62.777,109.537,73.723,113.711,83.929z"/>
		<path fill="#F1E4EB" d="M113.711,83.929c4.179,10.207,12.479,15.809,19.83,12.698c7.35-3.11,9.562-13.579,5.383-23.784
			c-4.175-10.206-13.158-16.288-20.509-13.176C111.063,62.777,109.537,73.723,113.711,83.929z"/>
		<path fill="#F1E4EB" d="M113.711,83.929c4.179,10.207,12.479,15.809,19.83,12.698c7.35-3.11,9.562-13.579,5.383-23.784
			c-4.175-10.206-13.158-16.288-20.509-13.176C111.063,62.777,109.537,73.723,113.711,83.929z"/>
		<path fill="#F1E4EB" d="M113.711,83.929c4.179,10.207,12.479,15.809,19.83,12.698c7.35-3.11,9.562-13.579,5.383-23.784
			c-4.175-10.206-13.158-16.288-20.509-13.176C111.063,62.777,109.537,73.723,113.711,83.929z"/>
		<path fill="#F1E4EB" d="M113.711,83.929c4.179,10.207,12.479,15.809,19.83,12.698c7.35-3.11,9.562-13.579,5.383-23.784
			c-4.175-10.206-13.158-16.288-20.509-13.176C111.063,62.777,109.537,73.723,113.711,83.929z"/>
		<path fill="#F1E4EB" d="M113.711,83.929c4.179,10.207,12.479,15.809,19.83,12.698c7.35-3.11,9.562-13.579,5.383-23.784
			c-4.175-10.206-13.158-16.288-20.509-13.176C111.063,62.777,109.537,73.723,113.711,83.929z"/>
		<path fill="#F1E4EB" d="M113.711,83.929c4.179,10.207,12.479,15.809,19.83,12.698c7.35-3.11,9.562-13.579,5.383-23.784
			c-4.175-10.206-13.158-16.288-20.509-13.176C111.063,62.777,109.537,73.723,113.711,83.929z"/>
		<path fill="#F1E4EB" d="M113.711,83.929c4.179,10.207,12.479,15.809,19.83,12.698c7.35-3.11,9.562-13.579,5.383-23.784
			c-4.175-10.206-13.158-16.288-20.509-13.176C111.063,62.777,109.537,73.723,113.711,83.929z"/>
		<path fill="#F1E4EB" d="M113.711,83.929c4.179,10.207,12.479,15.809,19.83,12.698c7.35-3.11,9.562-13.579,5.383-23.784
			c-4.175-10.206-13.158-16.288-20.509-13.176C111.063,62.777,109.537,73.723,113.711,83.929z"/>
		<path fill="#BEA330" d="M113.711,83.929c4.179,10.207,12.479,15.809,19.83,12.698c7.35-3.11,9.562-13.579,5.383-23.784
			c-4.175-10.206-13.158-16.288-20.509-13.176C111.063,62.777,109.537,73.723,113.711,83.929z"/>
	</g>
	<path fill="#FFFFFF" d="M115.432,83.203c3.644,8.902,11.733,13.946,18.068,11.265c6.336-2.682,8.519-12.071,4.875-20.974
		c-3.642-8.902-11.732-13.947-18.068-11.265C113.972,64.909,111.789,74.3,115.432,83.203z"/>
	<path fill="#302F2B" d="M117.816,82.49c2.074,7.565,7.392,12.667,11.879,11.396c4.488-1.271,6.447-8.435,4.373-15.999
		c-2.071-7.564-7.389-12.667-11.878-11.396C117.702,67.762,115.744,74.926,117.816,82.49z"/>
	<path fill="#FFFFFF" d="M131.092,77.857c-1.502,1.425-4.658,0.472-7.043-2.129c-2.391-2.604-3.105-5.871-1.604-7.296
		c1.506-1.428,4.658-0.473,7.049,2.129C131.88,73.164,132.596,76.431,131.092,77.857z"/>
	<path opacity="0.25" fill="#BEA330" d="M160.959,77.45c4.248,8.327,12.311,11.628,13.682,7.178
		c0.939-3.033-0.348-8.961-2.32-14.615c-0.924-2.644-2.172-5.421-3.582-7.713c-4.43-7.194-10.466-11.258-12.35-6.897
		c-1.518,3.509-0.615,9.386,1.336,14.61C158.802,72.9,159.994,75.556,160.959,77.45z"/>
	<path fill="#FFFFFF" d="M163.1,78.151c4.459,7.235,9.191,9.472,10.576,4.995c1.384-4.478-1.105-13.973-5.563-21.209
		s-9.192-9.473-10.576-4.994C156.154,61.42,158.643,70.915,163.1,78.151z"/>
	<path fill="#302F2B" d="M163.771,77.763c3.5,5.543,7.179,7.334,8.211,4.002c1.033-3.332-0.97-10.527-4.473-16.067
		c-3.499-5.543-7.177-7.335-8.213-4.002C158.266,65.028,160.268,72.221,163.771,77.763z"/>
	<path fill="#FFFFFF" d="M166.158,69.247c-1,0.33-2.955-1.098-4.373-3.186c-1.416-2.089-1.755-4.049-0.759-4.378
		c0.998-0.329,2.956,1.099,4.373,3.187C166.816,66.958,167.157,68.917,166.158,69.247z"/>
	<path opacity="0.1" fill="#BEA330" d="M190.393,151.866c0,0-19.416,6.344-40.986,4.734c0,0,15.693,9.729,27.727,8.685
		C189.168,164.241,189.512,159.249,190.393,151.866z"/>
	<g>
		<path fill="#F7F8F8" d="M0.099,194.382c0.961,20.83,4.398,43.066,29.833,57.703c25.432,14.637,47.705,23.223,83.862,22.66
			c36.155-0.564,71.476-3.707,91.823-22.848s17.389-40.393,17.389-40.393s3.103-48.862-33.418-62.028
			c-0.985-0.355-9.377,11.245-10.208,10.736c-4.316,1.361-44.48-1.339-56.926-3.942c-12.446-2.604-38.343-14.094-41.147-17.316
			c-2.803-3.225-5.581-8.91-5.355-8.236c0,0-8.012-4.938-18.236-8.775c-3.87-1.451-10.237-6.828-14.307-8.125
			c-5.133-1.637-9.66-0.987-12.249-0.394c-2.592,0.594-6.612,3.634-9.105,7.873c-2.496,4.239-13.911,25.355-15.896,30.569
			C-0.928,170.478,0.099,194.382,0.099,194.382z"/>
		<g opacity="0.25">
			<path fill="#010101" d="M172.277,158.159l-0.967,13.103c0,0-31.842,8.19-58.343-10.275L90.625,144.38l26.923,10.869
				C117.548,155.249,147.527,164.439,172.277,158.159z"/>
			<path fill="#010101" d="M180.922,155.515l8.74,11.109c0,0,11.34-6.107,11.659-11.926l-10.51-5.003
				C190.812,149.695,184.366,151.809,180.922,155.515z"/>
		</g>
		<g>
			<g>
				<path fill="#FFFFFF" d="M172.277,157.33l-0.967,13.103c0,0-31.842,8.191-58.343-10.275L90.625,144.38l26.923,10.04
					C117.548,154.42,147.527,163.61,172.277,157.33z"/>
				<path fill="#FFFFFF" d="M180.924,154.687l8.738,11.108c0,0,11.34-6.106,11.659-11.924l-10.51-5.005
					C190.812,148.866,184.366,150.981,180.924,154.687z"/>
			</g>
		</g>
		<g>
			<path opacity="0.25" fill="#010101" d="M183.592,165.706c0,0,1.367-0.81,1.016-2.642l-0.715-6.112c0,0,0.041-2.266-2.521-1.666
				c0,0-7.467,2.504-10.188,3.164c0,0-0.973-0.48,0.548,1.621c0.212,0.293-0.358,2.889-0.358,2.889
				c1.166,1.7,2.813,4.105,3.501,4.963c0,0,1.015,1.02,2.226,0.546L183.592,165.706z"/>
			<path fill="#3D3484" d="M184.034,164.897c0,0,1.37-0.809,1.017-2.641l-0.712-6.111c0,0,0.038-2.266-2.524-1.666
				c0,0-7.467,2.504-10.188,3.164c0,0-2.447,0.796-0.926,2.898c0.706,0.979,3.635,5.352,4.618,6.574c0,0,1.013,1.02,2.224,0.545
				L184.034,164.897z"/>
			<path opacity="0.25" fill="#010101" d="M182.15,243.52l-13.215-11.73c0,0,14.018-51.354,8.606-64.128l3.958-1.422
				c0,0,17.332,21.172,10.715,64.92L182.15,243.52z"/>
			<path fill="#3D3484" d="M184.238,242.171l-11.556-10.074c0,0,10.513-52.483,5.1-65.258l5.806-1.947
				c0,0,17.333,21.171,10.717,64.92L184.238,242.171z"/>
			<path fill="#4B4599" d="M174.934,158.915c0,0-1.318-0.607-0.473-1.161c0.625-0.41,7.645-2.53,7.645-2.53s1.637-0.334,1.715,0.881
				c0.077,1.215,0.28,2.316,0.081,2.529c-0.563,0.606-4.232,1.313-5.571,1.431C176.991,160.182,174.934,158.915,174.934,158.915z"/>
		</g>
		<path fill="#484848" d="M19.82,244.942c27.812,23.602,91.668,24.153,124.465,20.607c57.268-6.19,73.43-29.619,73.43-29.619
			c-6.111,14.059-15.969,21.685-30.786,27.9c-50.396,21.144-120.376,11.604-146.811-4.099
			C27.307,252.123,19.82,244.942,19.82,244.942z"/>
		<g>
			<polygon opacity="0.25" fill="#010101" points="152.373,193.298 135.313,194.032 134.924,205.896 134.906,221.638 
				152.256,226.363 163.645,221.441 163.392,193.253 			"/>
			<polygon fill="#FFFFFF" points="153.384,192.263 135.515,192.997 135.717,220.603 152.256,225.327 163.645,220.819 
				164.041,210.643 163.998,192.839 			"/>
			<rect x="140.518" y="185.437" fill="#F15A22" width="2" height="8"/>
			<rect x="140.518" y="191.437" fill="#F15A22" width="1" height="6"/>
		</g>
	</g>
	<g>
		<path fill="#BEA330" d="M47.262,221.733c-29.648-27.037-41.368-52.35-41.51-59.461c-0.118-6.102-1.099-17.513,11.132-31.445
			c0.053-0.06,0.325-0.281,0.582-0.209c0.595,0.166,0.918,0.884,1.169,0.599c0.166-0.187-0.228-0.893-0.333-1.397
			c-0.061-0.281,0.036-0.617,0.133-0.721c1.735-1.866,3.705-3.767,5.941-5.696c2.556-2.206,4.176-3.44,6.42-4.805
			c0.307-0.186,1.131-0.551,1.43-0.722c0.326-0.189,1.329,0.955,1.647,0.783c0.188-0.102-0.378-1.004-0.104-1.591
			c0.169-0.364,0.96-0.703,1.299-0.868c7.169-3.495,11.808-3.075,11.808-3.075l40.51,82.163L47.262,221.733z"/>
		<path fill="#FFE41B" d="M47.383,221.799c0.517,0.101-28.923-26.71-37.881-54.589l-0.006,0.008c0-0.01-0.002-0.021-0.004-0.031
			c0,0-7.271-18.58,7.506-33.257c0.261-0.26,0.553-0.529,1.207-0.282c0.103,0.039,0.54,0.428,0.996,0.988
			c5.879,7.186,27.021,39.592,27.606,39c0.544-0.551-22.415-34.687-26.135-41.664c-0.39-0.731-0.414-0.919-0.348-1.13
			c0.073-0.242,0.198-0.431,0.384-0.603c3.056-2.835,7.592-6.965,11.648-9.72c0.337-0.229,0.495-0.396,1.001-0.388
			c0.06,0.001,0.375,0.038,0.89,0.726c4.783,6.408,27.371,41.664,27.838,41.366c0.506-0.321-21.19-34.141-25.605-42.105
			c0,0-0.597-1.047-0.509-1.517c0.124-0.655,0.358-0.862,0.754-1.096c2.843-1.69,6.846-2.776,10.152-4.38
			c3.334-1.619,11.926,8.188,18.279,16.308c2.929,3.786,5.468,7.271,6.702,8.986c0.509,0.715,0.795,1.127,0.795,1.127
			s-0.021-0.035-0.061-0.102c0.042,0.059,0.067,0.093,0.067,0.093c7.818,10.826,16.863,25.494,26.634,45.266
			c0,0,5.038,20.182-20.693,34.701c0,0-1.352,0.703-7.27,2.78c-5.154,1.809-12.137,3.257-17.203,2.862c0,0-2.124,0.189-6.802-3.369
			C47.371,221.81,47.393,221.816,47.383,221.799z"/>
		<path opacity="0.1" fill="#FFFFFF" d="M80.956,161.029c0,0-9.714-10.686-11.285,27.401c-0.43,10.469-24.875,30.346-5.976,31.777
			c0,0,19.458-0.98,29.815-20.871C93.511,199.337,101.849,188.626,80.956,161.029z"/>
	</g>
	<g>
		<path fill="#E24F25" d="M165.033,56.838c0,0,14.141-14.385,0.363-23.93c0,0-16.782-6.789-46.534,6.782
			C89.113,53.262,66.817,73.164,64.188,83.946c0,0,39.21-39.742,75.321-38.019c0,0,13.786,0.095,21.108,4.674L165.033,56.838z"/>
		<path fill="#F26922" d="M144.867,25.26c0,0-10.38-25.41-16.811-25.259l-6.894,1.532c0,0-1.222,0.425-3.737,2.338l-5.272,3.804
			c0,0-12.45-4.637-26.939,6.89c0,0-36.965,18.981-21.027,69.382c0,0,25.413-30.286,63.95-45.224l20.234-5.521L144.867,25.26z"/>
		<path fill="#E24F25" d="M157.154,31.349c0,0-7.364-9.595-16.727-15.773l7.431,16.461L157.154,31.349z"/>
		<path fill="#E24F25" d="M113.373,8.612l7.905-5.418c0,0,9.083,9.788,16.412,29.3l-1.877,0.686
			C135.813,33.179,120.408,13.666,113.373,8.612z"/>
	</g>
	<path fill="#F26922" d="M157.277,31.362c-1.531-0.152-8.905,1.839-8.905,1.839l-0.888-1.991l8.471-1.341
		c0,0,7.639-0.404,10.816,4.08c0,0-0.969-0.754-2.453-1.295C162.832,32.112,160.348,31.667,157.277,31.362z"/>
</g>
</svg>
