<?xml version="1.0" encoding="utf-8"?>
<!-- Generator: Adobe Illustrator 15.1.0, SVG Export Plug-In  -->
<!DOCTYPE svg PUBLIC "-//W3C//DTD SVG 1.1//EN" "http://www.w3.org/Graphics/SVG/1.1/DTD/svg11.dtd" [
	<!ENTITY ns_flows "http://ns.adobe.com/Flows/1.0/">
]>
<svg version="1.1"
	 xmlns="http://www.w3.org/2000/svg" xmlns:xlink="http://www.w3.org/1999/xlink" xmlns:a="http://ns.adobe.com/AdobeSVGViewerExtensions/3.0/"
	 x="0px" y="0px" width="562px" height="448px" viewBox="464.418 0 562 448" enable-background="new 464.418 0 562 448"
	 xml:space="preserve">
<defs>
</defs>
<rect x="465.418" y="0.204" fill="#B2762A" width="463.584" height="307.592"/>
<rect x="480.418" y="15.204" fill="#1E282E" width="433.584" height="277.592"/>
<path fill="#FFFFFF" d="M546.226,129.127c-1.46,1.59-3.804,2.738-7.031,3.445c-0.813,0.178-1.771,0.25-2.875,0.215
	c-1.324-0.034-2.359-0.227-3.1-0.58l-0.168,0.037c-0.479,0.105-0.918,0.021-1.315-0.251c-0.397-0.273-0.65-0.655-0.758-1.147
	c-0.263-1.201-0.604-3.011-1.021-5.431c-0.419-2.419-0.76-4.229-1.022-5.431c-0.294-1.338-0.755-3.332-1.389-5.98
	c-0.632-2.648-1.095-4.642-1.387-5.98c-0.104-0.469,0.022-1.012,0.377-1.629c0.355-0.617,0.767-0.977,1.233-1.079
	c0.268-0.059,1.242,0.13,2.924,0.564c1.901,0.483,2.996,0.741,3.283,0.774c3.402,0.418,6.469,1.533,9.199,3.344
	c3.209,2.139,5.168,4.833,5.88,8.081c0.428,1.956,0.39,3.93-0.111,5.922C548.441,125.993,547.535,127.702,546.226,129.127z
	 M538.747,111.742c-1.302-0.518-4.212-1.26-8.728-2.226l1.165,4.923l1.129,4.914l1.783,9.426c0.084,0.018,0.219,0.066,0.398,0.146
	c1.128,0.46,2.437,0.527,3.929,0.201c2.538-0.555,4.298-1.36,5.28-2.415c0.913-0.991,1.551-2.194,1.912-3.61
	c0.361-1.415,0.39-2.814,0.087-4.199C544.998,115.678,542.677,113.291,538.747,111.742z"/>
<path fill="#FFFFFF" d="M561.765,126.913c-1.869,0.409-3.633,0.052-5.289-1.072c-1.849-1.249-3.103-3.198-3.765-5.846
	c-0.633-2.571-0.497-4.986,0.408-7.246c1.05-2.663,2.966-4.299,5.749-4.908c2.226-0.487,4.14,0.19,5.745,2.033
	c1.283,1.494,2.169,3.433,2.656,5.819c0.521,2.547,0.351,4.856-0.514,6.927C565.778,124.968,564.114,126.398,561.765,126.913z
	 M559.414,111.371c-1.638,0.348-2.737,1.426-3.298,3.239c-0.44,1.451-0.479,3.006-0.114,4.665c0.362,1.658,1.084,2.855,2.166,3.588
	c0.903,0.606,1.849,0.8,2.839,0.583c1.158-0.253,2.06-0.906,2.703-1.958c0.736-1.168,0.953-2.575,0.651-4.224
	C563.546,112.804,561.898,110.84,559.414,111.371z"/>
<path fill="#FFFFFF" d="M586.335,121.75c-0.958,0.21-1.615-0.21-1.973-1.258l-1.29-3.655c-0.449-1.304-0.8-2.54-1.056-3.707
	c-0.07-0.32-0.17-0.867-0.3-1.642c-0.127-0.775-0.228-1.323-0.298-1.643c-0.54-2.471-1.256-3.608-2.146-3.414
	c-1.246,0.273-2.271,1.295-3.073,3.064c-0.72,1.608-1.139,3.533-1.254,5.776c0.075,0.451,0.147,1.022,0.218,1.714
	c0.059,0.586,0.146,1.149,0.263,1.687c0.075,0.343,0.223,0.85,0.439,1.522c0.218,0.671,0.362,1.18,0.438,1.522
	c0.113,0.515,0.052,0.965-0.185,1.353c-0.236,0.388-0.594,0.634-1.071,0.739c-0.49,0.107-0.92,0.033-1.291-0.222
	c-0.37-0.254-0.612-0.638-0.725-1.152c-0.076-0.344-0.225-0.851-0.447-1.521c-0.223-0.671-0.371-1.177-0.446-1.521
	c-0.258-1.178-0.534-2.829-0.83-4.952c-0.295-2.123-0.573-3.773-0.831-4.952c-0.079-0.366-0.218-0.905-0.414-1.617
	c-0.197-0.713-0.335-1.251-0.415-1.617c-0.107-0.492-0.038-0.93,0.21-1.313c0.25-0.385,0.606-0.628,1.074-0.729
	c1.024-0.225,1.749,0.396,2.175,1.861l0.489,1.997c1.309-2.972,2.948-4.673,4.919-5.104c1.78-0.389,3.198,0.146,4.251,1.604
	c0.715,0.971,1.324,2.504,1.83,4.599l0.379,1.732l0.333,1.6c0.208,0.949,0.595,2.15,1.165,3.602c0.567,1.452,0.955,2.647,1.16,3.585
	c0.11,0.503,0.041,0.947-0.206,1.331C587.176,121.401,586.814,121.646,586.335,121.75z"/>
<path fill="#FFFFFF" d="M587.036,100.651c-0.856,0.188-1.418-0.241-1.682-1.286c-0.101-0.41-0.154-1.261-0.157-2.555l-0.021-3.142
	c-0.044-0.938,0.281-1.482,0.972-1.633c0.4-0.088,0.759-0.004,1.078,0.25c0.318,0.254,0.523,0.593,0.615,1.016
	c0.233,0.957,0.318,2.76,0.258,5.41C588.069,99.855,587.714,100.502,587.036,100.651z"/>
<path fill="#FFFFFF" d="M605.29,101.006c-0.233,0.051-0.513,0.1-0.834,0.146s-0.6,0.095-0.834,0.146
	c-0.256,0.056-0.993,0.308-2.214,0.754l2.536,10.071l0.183,0.751l0.208,0.872c0.593,2.495,0.283,3.875-0.931,4.141
	c-0.445,0.098-0.864,0.033-1.257-0.192c-0.394-0.226-0.639-0.562-0.736-1.008c-0.096-0.434-0.222-1.09-0.379-1.967
	c-0.156-0.876-0.283-1.532-0.379-1.967l-2.527-9.947c-0.819,0.144-2.075,0.317-3.769,0.52c-1.021,0.08-1.641-0.378-1.858-1.373
	c-0.109-0.503-0.05-0.953,0.177-1.351c0.229-0.397,0.575-0.648,1.043-0.75l3.57-0.476c-0.128-0.583-0.325-1.358-0.588-2.326
	c-0.265-0.967-0.444-1.668-0.538-2.103c-0.105-0.48-0.032-0.913,0.222-1.298s0.615-0.629,1.083-0.731
	c1.001-0.22,1.77,0.493,2.304,2.138c0.126,0.417,0.256,0.922,0.386,1.517l0.184,1.002l0.217,1.067
	c1.34-0.485,2.109-0.75,2.311-0.793c1.156-0.253,1.926-0.361,2.308-0.325c0.729,0.08,1.187,0.543,1.372,1.39
	c0.109,0.503,0.047,0.952-0.188,1.345C606.125,100.652,605.769,100.901,605.29,101.006z"/>
<path fill="#FFFFFF" d="M635.708,93.791c0.233,1.71,0.535,3.406,0.903,5.088c0.833,3.81,1.635,6.648,2.406,8.518
	c0.058,0.155,0.098,0.284,0.121,0.387c0.1,0.458,0.025,0.869-0.22,1.235c-0.249,0.366-0.576,0.593-0.989,0.684
	c-0.689,0.151-1.308-0.253-1.855-1.211c-0.669,0.781-1.401,1.421-2.196,1.918c-0.795,0.498-1.659,0.85-2.595,1.054
	c-2.304,0.504-4.386,0.133-6.245-1.115c-1.911-1.271-3.144-3.171-3.696-5.699c-0.669-3.054-0.417-5.674,0.754-7.86
	c1.173-2.187,3.016-3.555,5.531-4.106c1.291-0.282,2.333-0.294,3.123-0.036l1.83,0.84c-0.9-4.849-1.426-8.132-1.58-9.849
	c-0.078-1.049,0.317-1.669,1.186-1.859c1.014-0.222,1.642,0.223,1.884,1.332C634.418,84.7,634.963,88.26,635.708,93.791z
	 M628.393,95.859c-1.87,0.409-3.147,1.285-3.834,2.628c-0.685,1.342-0.777,3.158-0.277,5.445c0.323,1.476,1.11,2.634,2.362,3.475
	c1.25,0.841,2.561,1.111,3.93,0.812c0.935-0.205,1.686-0.555,2.254-1.051c0.333-0.289,0.848-0.899,1.542-1.83
	c0.135-0.185,0.256-0.397,0.367-0.638l-0.699-2.958l-0.42-1.993l-0.41-2.032c-0.625-0.833-1.338-1.406-2.143-1.715
	C630.264,95.692,629.373,95.645,628.393,95.859z"/>
<path fill="#FFFFFF" d="M655.162,94.909c0.18,0.824,0.455,2.058,0.827,3.703c0.372,1.644,0.647,2.879,0.829,3.702
	c0.055,0.252,0.157,0.631,0.31,1.137c0.151,0.507,0.254,0.886,0.31,1.138c0.107,0.491,0.034,0.93-0.22,1.315
	c-0.255,0.386-0.615,0.63-1.082,0.731c-0.856,0.188-1.521-0.236-1.991-1.272c-1.229,1.049-2.751,1.771-4.564,2.168
	c-1.458,0.319-2.739,0.251-3.841-0.203c-1.218-0.5-2.082-1.432-2.59-2.795c-1.096-2.937-1.904-5.589-2.423-7.957
	c-0.343-1.567-0.567-3.388-0.671-5.463c-0.063-1.029,0.357-1.642,1.26-1.84c0.478-0.104,0.912-0.035,1.305,0.208
	c0.393,0.244,0.642,0.612,0.748,1.104c0.116,0.526,0.22,1.385,0.312,2.575c0.091,1.191,0.203,2.089,0.336,2.695
	c0.419,1.911,0.837,3.533,1.258,4.867c0.419,1.335,0.843,2.387,1.268,3.157c0.412,0.125,0.809,0.203,1.188,0.234
	c0.38,0.031,0.742,0.008,1.088-0.068c1.49-0.326,3.013-0.917,4.563-1.771l-0.78-3.479l-0.761-3.322
	c-0.541-2.471-0.905-4.638-1.092-6.503c-0.107-1.079,0.317-1.723,1.274-1.933c0.478-0.104,0.914-0.032,1.308,0.218
	c0.393,0.25,0.629,0.617,0.713,1.103L655.162,94.909z"/>
<path fill="#FFFFFF" d="M669.294,103.448c-2.282,0.5-4.34,0.207-6.175-0.877c-1.929-1.136-3.159-2.922-3.692-5.359
	c-0.509-2.322-0.282-4.883,0.68-7.683c1.069-3.111,2.649-4.895,4.741-5.353c1.091-0.238,2.367-0.242,3.829-0.011
	c1.851,0.303,2.882,0.939,3.095,1.911c0.096,0.435,0.04,0.852-0.163,1.25c-0.205,0.399-0.513,0.643-0.925,0.733
	c-0.322,0.07-0.626,0.032-0.909-0.116c-0.282-0.147-0.557-0.295-0.823-0.44c-0.773-0.394-1.906-0.428-3.396-0.102
	c-1.137,0.249-2.032,1.537-2.689,3.862c-0.595,2.131-0.739,3.895-0.434,5.291c0.331,1.509,1.091,2.59,2.283,3.24
	c1.112,0.607,2.403,0.75,3.872,0.429c0.669-0.146,1.341-0.485,2.017-1.017l1.704-1.488c0.294-0.256,0.514-0.399,0.659-0.432
	c0.41-0.09,0.804,0.001,1.178,0.272c0.375,0.272,0.609,0.625,0.705,1.059c0.183,0.835-0.498,1.83-2.043,2.982
	C671.456,102.615,670.284,103.231,669.294,103.448z"/>
<path fill="#FFFFFF" d="M693.135,97.834c-0.612,0.134-1.158-0.094-1.638-0.685c-0.83-1.028-2.004-2.204-3.519-3.526l-3.859-3.489
	c-0.531,0.668-1.372,1.625-2.521,2.872c0.266,1.8,0.582,3.541,0.95,5.222c0.113,0.515,0.05,0.966-0.185,1.353
	c-0.237,0.387-0.594,0.633-1.073,0.738c-1.123,0.246-1.856-0.409-2.196-1.964c-0.208-0.949-0.454-2.385-0.74-4.306
	c-0.287-1.921-0.534-3.356-0.741-4.306c-0.381-1.738-0.79-3.731-1.23-5.979s-0.848-4.229-1.223-5.944
	c-0.113-0.516-0.271-1.116-0.473-1.802c-0.202-0.688-0.361-1.288-0.474-1.803s-0.052-0.966,0.185-1.353
	c0.235-0.387,0.593-0.633,1.072-0.738c0.479-0.105,0.904-0.03,1.282,0.222c0.375,0.254,0.62,0.638,0.732,1.152
	c0.116,0.526,0.279,1.141,0.491,1.844c0.212,0.703,0.376,1.317,0.491,1.843l1.093,5.55c0.379,2.002,0.799,3.997,1.257,5.982
	c1.254-1.521,2.425-3.144,3.518-4.87l2.82-4.698c0.282-0.47,0.635-0.75,1.058-0.843c0.435-0.096,0.864-0.004,1.293,0.274
	s0.694,0.651,0.797,1.121c0.086,0.389,0.007,0.808-0.232,1.255c-1.01,1.947-2.308,4.083-3.897,6.409l4.753,4.3
	c2.228,2.018,3.419,3.387,3.577,4.108c0.1,0.457,0.011,0.89-0.268,1.299C693.958,97.479,693.591,97.734,693.135,97.834z"/>
<path fill="#FFFFFF" d="M714.237,93.538c-1.869,0.41-3.633,0.052-5.29-1.071c-1.847-1.25-3.103-3.199-3.763-5.847
	c-0.633-2.57-0.498-4.985,0.407-7.245c1.05-2.663,2.965-4.299,5.749-4.908c2.225-0.487,4.141,0.19,5.745,2.033
	c1.283,1.493,2.169,3.433,2.656,5.818c0.523,2.547,0.351,4.856-0.514,6.927C718.25,91.593,716.586,93.024,714.237,93.538z
	 M711.885,77.998c-1.639,0.347-2.737,1.426-3.298,3.239c-0.44,1.451-0.479,3.006-0.115,4.664c0.363,1.659,1.086,2.855,2.168,3.589
	c0.902,0.606,1.849,0.8,2.839,0.583c1.157-0.253,2.059-0.906,2.702-1.958c0.736-1.167,0.953-2.575,0.651-4.224
	C716.018,79.43,714.37,77.465,711.885,77.998z"/>
<path fill="#FFFFFF" d="M737.165,76.959c0.181,0.824,0.456,2.058,0.828,3.703s0.648,2.878,0.828,3.702
	c0.055,0.252,0.158,0.631,0.311,1.137c0.151,0.507,0.255,0.886,0.31,1.138c0.107,0.491,0.034,0.93-0.219,1.315
	c-0.255,0.385-0.615,0.629-1.083,0.731c-0.856,0.188-1.521-0.237-1.992-1.272c-1.229,1.048-2.75,1.771-4.564,2.168
	c-1.458,0.319-2.738,0.251-3.84-0.202c-1.217-0.501-2.081-1.433-2.589-2.795c-1.098-2.937-1.905-5.589-2.425-7.957
	c-0.342-1.566-0.565-3.388-0.67-5.463c-0.063-1.028,0.357-1.642,1.26-1.839c0.479-0.105,0.913-0.035,1.306,0.208
	c0.391,0.244,0.641,0.612,0.748,1.104c0.114,0.527,0.218,1.385,0.311,2.575c0.091,1.191,0.204,2.089,0.336,2.695
	c0.418,1.911,0.838,3.533,1.257,4.867c0.421,1.334,0.843,2.387,1.27,3.157c0.411,0.125,0.809,0.203,1.188,0.234
	c0.38,0.031,0.743,0.007,1.088-0.068c1.49-0.326,3.012-0.917,4.563-1.771l-0.779-3.479l-0.762-3.322
	c-0.54-2.471-0.904-4.638-1.091-6.503c-0.108-1.079,0.316-1.724,1.274-1.933c0.479-0.105,0.913-0.032,1.307,0.217
	s0.63,0.618,0.714,1.103L737.165,76.959z"/>
<path fill="#FFFFFF" d="M751.484,69.006c-0.233,0.051-0.512,0.1-0.833,0.146c-0.322,0.046-0.601,0.096-0.834,0.146
	c-0.257,0.056-0.994,0.308-2.215,0.754l2.537,10.071l0.183,0.751l0.208,0.872c0.593,2.495,0.282,3.875-0.931,4.141
	c-0.445,0.098-0.865,0.034-1.257-0.192c-0.395-0.225-0.64-0.561-0.738-1.007c-0.095-0.434-0.221-1.09-0.377-1.967
	c-0.158-0.876-0.284-1.532-0.379-1.967l-2.527-9.947c-0.82,0.144-2.076,0.317-3.77,0.52c-1.021,0.08-1.64-0.378-1.857-1.373
	c-0.109-0.503-0.052-0.953,0.177-1.351c0.228-0.397,0.575-0.648,1.043-0.75l3.568-0.476c-0.128-0.583-0.323-1.358-0.586-2.326
	c-0.265-0.967-0.445-1.667-0.54-2.103c-0.105-0.48-0.031-0.913,0.223-1.298c0.254-0.385,0.615-0.629,1.083-0.731
	c1.001-0.219,1.771,0.493,2.305,2.138c0.126,0.417,0.255,0.922,0.385,1.517l0.185,1.002l0.215,1.067
	c1.341-0.485,2.111-0.75,2.312-0.793c1.156-0.253,1.927-0.361,2.309-0.326c0.728,0.081,1.185,0.544,1.37,1.391
	c0.111,0.503,0.048,0.952-0.186,1.345C752.319,68.653,751.963,68.901,751.484,69.006z"/>
<path fill="#FFFFFF" d="M576.375,163.693c-1.87,0.409-3.634,0.052-5.29-1.072c-1.849-1.25-3.103-3.198-3.764-5.846
	c-0.634-2.571-0.498-4.986,0.407-7.246c1.051-2.663,2.967-4.299,5.749-4.908c2.226-0.487,4.14,0.19,5.745,2.033
	c1.283,1.493,2.169,3.433,2.656,5.819c0.523,2.547,0.352,4.856-0.513,6.927C580.387,161.748,578.724,163.179,576.375,163.693z
	 M574.023,148.152c-1.638,0.347-2.737,1.426-3.296,3.239c-0.442,1.451-0.48,3.006-0.116,4.664c0.362,1.659,1.084,2.855,2.167,3.589
	c0.902,0.606,1.849,0.8,2.838,0.584c1.158-0.253,2.06-0.906,2.703-1.958c0.736-1.168,0.954-2.576,0.651-4.224
	C578.156,149.584,576.507,147.62,574.023,148.152z"/>
<path fill="#FFFFFF" d="M593.813,133.536c-2.694,0.589-3.782,2.842-3.264,6.755l0.183,1.075c1.862-0.552,3.071-0.888,3.628-1.01
	c1.771-0.388,2.78-0.009,3.03,1.135c0.183,0.835-0.142,1.428-0.976,1.777c-0.364,0.152-0.8,0.274-1.311,0.368
	c-0.51,0.093-1.775,0.451-3.797,1.074l0.723,3.941c0.155,0.709,0.409,1.768,0.766,3.177c0.355,1.408,0.608,2.461,0.761,3.16
	c0.477,2.173,0.724,3.893,0.744,5.159c0.012,0.956-0.406,1.527-1.252,1.712c-0.456,0.1-0.878,0.033-1.268-0.199
	c-0.39-0.233-0.634-0.578-0.734-1.035c-0.021-0.092-0.033-0.208-0.041-0.35c-0.093-1.538-0.33-3.183-0.713-4.933l-1.075-4.673
	l-1.089-4.976c-1.366,0.419-2.233,0.668-2.601,0.749c-1.125,0.246-1.807-0.186-2.049-1.295c-0.249-1.132,0.595-1.94,2.529-2.424
	l1.592-0.402c-0.107-0.647-0.215-1.535-0.321-2.663c-0.266-2.603-0.052-4.609,0.642-6.02c0.841-1.706,2.49-2.829,4.95-3.367
	c1.591-0.349,2.508,0.032,2.75,1.142C595.861,132.512,595.258,133.22,593.813,133.536z"/>
<path fill="#FFFFFF" d="M623.438,137.012c-0.232,0.052-0.512,0.101-0.834,0.146c-0.321,0.047-0.6,0.096-0.833,0.146
	c-0.256,0.057-0.995,0.308-2.215,0.755l2.536,10.07l0.183,0.751l0.209,0.872c0.593,2.495,0.283,3.875-0.931,4.142
	c-0.446,0.097-0.864,0.033-1.258-0.192s-0.639-0.562-0.736-1.007c-0.096-0.435-0.222-1.09-0.378-1.967
	c-0.157-0.876-0.284-1.532-0.38-1.967l-2.526-9.946c-0.82,0.143-2.076,0.316-3.769,0.519c-1.021,0.08-1.642-0.378-1.858-1.373
	c-0.11-0.503-0.051-0.954,0.176-1.352c0.229-0.397,0.576-0.647,1.044-0.749l3.569-0.476c-0.128-0.583-0.324-1.358-0.588-2.326
	c-0.264-0.967-0.443-1.668-0.539-2.103c-0.104-0.48-0.031-0.913,0.224-1.298c0.254-0.385,0.615-0.629,1.083-0.731
	c1.001-0.219,1.77,0.493,2.304,2.138c0.126,0.416,0.255,0.921,0.385,1.516l0.184,1.002l0.217,1.067
	c1.34-0.484,2.11-0.749,2.311-0.792c1.157-0.254,1.926-0.362,2.309-0.326c0.729,0.081,1.186,0.543,1.371,1.391
	c0.109,0.503,0.048,0.951-0.188,1.344C624.274,136.659,623.917,136.907,623.438,137.012z"/>
<path fill="#FFFFFF" d="M641.793,135.026c0.234,1.446-0.166,2.284-1.2,2.51c-0.958,0.21-1.561-0.251-1.808-1.384
	c-0.049-0.218-0.152-0.614-0.313-1.19l-0.364-1.431c-1.713,0.603-3.009,1.42-3.891,2.452c-0.827,0.96-1.406,2.262-1.734,3.903
	l2.092,9.396c0.253,1.155-0.172,1.853-1.274,2.095c-0.979,0.214-1.596-0.256-1.849-1.412l-2.637-12.044
	c-0.083-0.377-0.191-0.947-0.329-1.708c-0.138-0.761-0.247-1.33-0.33-1.708c-0.253-1.155,0.109-1.84,1.09-2.055
	c1.091-0.238,1.849,0.591,2.275,2.487c1.674-2.583,3.814-4.161,6.418-4.731c0.901-0.197,1.65,0.004,2.249,0.604
	c0.598,0.601,1.051,1.604,1.359,3.011C641.677,134.417,641.758,134.818,641.793,135.026z"/>
<path fill="#FFFFFF" d="M661.293,145.231c-0.212,0.046-0.65-0.122-1.317-0.503c-0.603-0.359-1.067-0.695-1.392-1.008
	c-0.938,0.829-1.781,1.484-2.527,1.965c-0.747,0.48-1.393,0.781-1.937,0.9c-2.604,0.57-4.668,0.231-6.189-1.019
	c-1.434-1.172-2.473-3.222-3.113-6.151c-0.606-2.768-0.196-5.338,1.226-7.712c1.422-2.372,3.419-3.841,5.989-4.403
	c0.97-0.212,2.11-0.192,3.425,0.06c1.654,0.309,2.58,0.916,2.778,1.819c0.067,0.309,0.015,0.608-0.154,0.897
	c-0.017,0.459,0.054,1.193,0.211,2.201s0.399,2.292,0.729,3.85c0.3,1.421,0.641,2.521,1.021,3.301
	c0.221,0.479,0.792,1.408,1.712,2.79c0.123,0.188,0.318,0.463,0.583,0.825l0.165,0.27c0.101,0.458,0.026,0.869-0.22,1.235
	C662.034,144.914,661.707,145.141,661.293,145.231z M655.211,134.066c-0.108-0.491-0.194-1.033-0.26-1.624
	c-0.065-0.591-0.108-1.226-0.128-1.905c-0.46-0.126-0.849-0.209-1.165-0.248c-0.318-0.039-0.566-0.038-0.744,0
	c-1.725,0.378-3.054,1.427-3.991,3.148c-0.935,1.721-1.195,3.525-0.783,5.412c0.411,1.876,1.042,3.213,1.894,4.009
	c0.851,0.797,1.92,1.054,3.212,0.771c1.068-0.234,1.932-0.633,2.59-1.196c0.353-0.305,0.82-0.863,1.401-1.673
	C656.216,137.809,655.542,135.577,655.211,134.066z"/>
<path fill="#FFFFFF" d="M667.738,134.471c0.15,0.687,0.395,1.709,0.733,3.067c0.337,1.358,0.581,2.381,0.732,3.067
	c0.109,0.503,0.05,0.948-0.181,1.334c-0.23,0.386-0.591,0.632-1.08,0.739c-0.479,0.105-0.906,0.031-1.282-0.223
	c-0.377-0.253-0.619-0.631-0.729-1.135c-0.15-0.687-0.395-1.708-0.731-3.067c-0.34-1.358-0.584-2.38-0.734-3.067
	c-0.235-1.075-0.473-2.428-0.712-4.06c-0.241-1.631-0.48-2.985-0.715-4.06c-0.112-0.515-0.052-0.965,0.186-1.353
	c0.234-0.387,0.593-0.633,1.072-0.738c0.478-0.104,0.905-0.03,1.282,0.223c0.375,0.253,0.619,0.637,0.731,1.152
	c0.235,1.075,0.474,2.429,0.715,4.06C667.264,132.043,667.502,133.396,667.738,134.471z M663.938,120.704
	c-0.535,0.117-1.04,0.024-1.515-0.28s-0.771-0.73-0.892-1.279s-0.028-1.061,0.275-1.535c0.305-0.474,0.725-0.77,1.259-0.887
	c0.534-0.117,1.036-0.023,1.505,0.283c0.47,0.304,0.764,0.731,0.884,1.28c0.12,0.549,0.032,1.06-0.269,1.533
	C664.887,120.292,664.472,120.587,663.938,120.704z"/>
<path fill="#FFFFFF" d="M688.157,139.441c-0.957,0.21-1.615-0.21-1.972-1.257l-1.29-3.656c-0.448-1.304-0.801-2.54-1.056-3.707
	c-0.069-0.32-0.171-0.868-0.3-1.643c-0.127-0.774-0.227-1.322-0.297-1.642c-0.541-2.471-1.258-3.609-2.146-3.415
	c-1.248,0.273-2.271,1.295-3.073,3.064c-0.722,1.608-1.14,3.534-1.255,5.777c0.075,0.451,0.146,1.022,0.218,1.714
	c0.058,0.587,0.146,1.149,0.264,1.687c0.075,0.343,0.222,0.851,0.438,1.522s0.362,1.179,0.438,1.522
	c0.112,0.515,0.051,0.965-0.184,1.353c-0.237,0.388-0.594,0.634-1.072,0.738c-0.49,0.107-0.921,0.034-1.291-0.221
	c-0.371-0.254-0.613-0.639-0.726-1.153c-0.075-0.343-0.224-0.85-0.446-1.521c-0.224-0.671-0.371-1.178-0.445-1.521
	c-0.259-1.178-0.535-2.828-0.832-4.951c-0.295-2.123-0.571-3.773-0.829-4.952c-0.081-0.366-0.218-0.904-0.415-1.617
	c-0.197-0.712-0.335-1.25-0.416-1.617c-0.106-0.492-0.036-0.93,0.211-1.314c0.249-0.384,0.606-0.627,1.073-0.729
	c1.025-0.225,1.75,0.396,2.176,1.861l0.488,1.997c1.31-2.972,2.95-4.674,4.919-5.105c1.78-0.389,3.199,0.146,4.252,1.605
	c0.715,0.97,1.324,2.503,1.83,4.598l0.379,1.732l0.333,1.6c0.208,0.95,0.595,2.15,1.164,3.602c0.568,1.452,0.955,2.647,1.161,3.585
	c0.109,0.503,0.041,0.947-0.207,1.331C688.999,139.092,688.636,139.336,688.157,139.441z"/>
<path fill="#FFFFFF" d="M695.218,128.457c0.15,0.686,0.395,1.709,0.731,3.067c0.339,1.358,0.582,2.38,0.732,3.067
	c0.111,0.503,0.05,0.948-0.179,1.333c-0.232,0.386-0.593,0.633-1.081,0.741c-0.479,0.104-0.906,0.03-1.281-0.224
	c-0.377-0.252-0.62-0.632-0.73-1.134c-0.15-0.687-0.395-1.708-0.733-3.067c-0.338-1.358-0.581-2.38-0.731-3.067
	c-0.235-1.075-0.473-2.428-0.714-4.059c-0.241-1.632-0.479-2.985-0.714-4.061c-0.112-0.515-0.052-0.965,0.185-1.353
	c0.236-0.387,0.593-0.633,1.071-0.738c0.479-0.105,0.906-0.03,1.283,0.223c0.376,0.253,0.621,0.637,0.733,1.151
	c0.235,1.076,0.473,2.429,0.713,4.061C694.745,126.028,694.983,127.381,695.218,128.457z M691.417,114.689
	c-0.534,0.117-1.039,0.023-1.514-0.28c-0.476-0.303-0.772-0.73-0.894-1.279c-0.119-0.549-0.027-1.061,0.277-1.535
	s0.724-0.77,1.258-0.887c0.534-0.117,1.037-0.023,1.506,0.282c0.469,0.305,0.764,0.731,0.883,1.28
	c0.12,0.549,0.031,1.061-0.268,1.533S691.952,114.572,691.417,114.689z"/>
<path fill="#FFFFFF" d="M715.637,133.426c-0.957,0.21-1.615-0.21-1.973-1.258l-1.289-3.655c-0.449-1.304-0.803-2.54-1.059-3.706
	c-0.068-0.32-0.169-0.868-0.297-1.643c-0.129-0.774-0.229-1.322-0.298-1.643c-0.541-2.47-1.257-3.608-2.147-3.414
	c-1.247,0.273-2.271,1.294-3.073,3.064c-0.722,1.608-1.141,3.534-1.255,5.777c0.075,0.451,0.148,1.022,0.217,1.714
	c0.06,0.586,0.148,1.148,0.266,1.686c0.075,0.343,0.221,0.851,0.438,1.522s0.364,1.179,0.439,1.522
	c0.112,0.514,0.05,0.965-0.186,1.353c-0.237,0.388-0.593,0.634-1.072,0.739c-0.489,0.107-0.92,0.033-1.29-0.222
	c-0.371-0.254-0.612-0.639-0.725-1.153c-0.075-0.343-0.224-0.85-0.447-1.521c-0.223-0.67-0.371-1.177-0.446-1.52
	c-0.258-1.178-0.535-2.829-0.83-4.952c-0.297-2.123-0.571-3.773-0.829-4.952c-0.081-0.366-0.22-0.905-0.416-1.617
	c-0.198-0.712-0.336-1.251-0.416-1.617c-0.107-0.492-0.036-0.93,0.212-1.314c0.248-0.384,0.606-0.627,1.074-0.729
	c1.021-0.224,1.748,0.397,2.174,1.862l0.489,1.996c1.31-2.971,2.948-4.673,4.918-5.104c1.781-0.391,3.197,0.145,4.253,1.604
	c0.714,0.971,1.323,2.503,1.828,4.598l0.38,1.733l0.332,1.599c0.208,0.95,0.596,2.15,1.164,3.602
	c0.569,1.452,0.956,2.647,1.161,3.585c0.11,0.503,0.041,0.947-0.207,1.331S716.116,133.322,715.637,133.426z"/>
<path fill="#FFFFFF" d="M732.583,120.692l0.877,5.849c0.435,2.302,0.615,4.222,0.544,5.76c-0.096,1.962-0.598,3.504-1.506,4.626
	c-1.104,1.356-2.919,2.312-5.444,2.864c-1.48,0.324-2.743,0.493-3.791,0.506c-1.464,0.021-2.296-0.421-2.494-1.325
	c-0.222-1.019,0.15-1.632,1.119-1.845c0.4-0.087,1.091-0.134,2.069-0.139s2.032-0.142,3.162-0.413
	c2.129-0.502,3.371-1.889,3.727-4.161c0.229-1.512,0.043-3.719-0.559-6.62c-0.35,1.275-0.878,2.29-1.58,3.043
	c-0.705,0.754-1.591,1.247-2.659,1.481c-2.015,0.441-3.808,0.094-5.38-1.042s-2.605-2.831-3.1-5.085
	c-0.676-3.088-0.357-5.764,0.955-8.03c1.354-2.334,3.567-3.837,6.639-4.51c1.037-0.227,1.936-0.279,2.695-0.158
	c0.763,0.121,1.387,0.416,1.873,0.885c1.197-0.227,1.943,0.324,2.234,1.65c0.178,0.813,0.298,1.925,0.363,3.337
	C732.417,119.001,732.502,120.109,732.583,120.692z M725.599,114.435c-2.117,0.464-3.588,1.571-4.417,3.322
	c-0.74,1.576-0.883,3.405-0.427,5.487c0.363,1.659,0.942,2.839,1.737,3.539c0.794,0.701,1.805,0.918,3.029,0.65
	c1.123-0.246,2.071-1.137,2.844-2.672c0.693-1.411,0.979-2.719,0.854-3.927c-0.036-1.286-0.21-3.28-0.521-5.981
	c-0.523-0.257-1.044-0.419-1.559-0.486C726.624,114.3,726.11,114.323,725.599,114.435z"/>
<rect x="26.058" y="56.944" display="none" fill="none" width="438.41" height="229.852"/>
<text transform="matrix(1 0 0 1.0277 26.0581 68.3042)" display="none"><tspan x="0" y="0" display="inline" fill="#676767" font-family="'OpenSans'" font-size="16">Save over 30% by learning online</tspan><tspan x="0" y="23.352" display="inline" fill="#676767" font-family="'OpenSans'" font-size="16">Learn in your own time</tspan><tspan x="0" y="46.704" display="inline" fill="#676767" font-family="'OpenSans'" font-size="16">Learn at home, work, or on-the-go</tspan><tspan x="0" y="70.057" display="inline" fill="#676767" font-family="'OpenSans'" font-size="16">No waiting - Start training today! </tspan><tspan x="0" y="93.409" display="inline" fill="#676767" font-family="'OpenSans'" font-size="16">Lower environmental impact</tspan><tspan x="0" y="116.761" display="inline" fill="#676767" font-family="'OpenSans'" font-size="16">Learn alone</tspan><tspan x="0" y="140.113" display="inline" fill="#676767" font-family="'OpenSans'" font-size="16">Blended learning means you never miss a lesson</tspan><tspan x="0" y="163.465" display="inline" fill="#676767" font-family="'OpenSans'" font-size="16">Monitor your performance</tspan><tspan x="0" y="186.818" display="inline" fill="#676767" font-family="'OpenSans'" font-size="16">Flexible and tailored - only the units that you need</tspan><tspan x="0" y="210.17" display="inline" fill="#676767" font-family="'OpenSans'" font-size="16">Learn from the cloud - no downloading required</tspan></text>
<g display="none">
	<rect y="14.864" fill="none" width="635.11" height="32.08"/>
	
		<text transform="matrix(1 0 0 1.0276 0 31.4468)" display="inline" fill="#121C47" font-family="'OpenSans-Semibold'" font-size="23.3558">10 Advantages to E-learning</text>
</g>
<polygon fill="#966126" points="910.418,19 484.418,19 480.418,15 914.418,15 "/>
<polygon fill="#966126" points="484.418,289 910.418,289 914.418,293 480.418,293 "/>
<polygon fill="#966126" points="910.418,290 910.418,19 914.418,15 914.418,294 "/>
<polygon fill="#966126" points="484.418,19 484.418,290 480.418,294 480.418,15 "/>
<path opacity="0.25" fill="#010101" d="M781.47,283.281c0,0-19.718,44.327-8.402,107.415l1.354,0.593
	c0,0-11.808-58.813,8.141-108.093l0.051-1.744L781.47,283.281z"/>
<path fill="#DEDEDD" d="M809.762,151.779c0,0,9.45-2.989,21.988,3.171l-0.968,2.568c0,0-8.889-5.487-21.588-3.232L809.762,151.779z"
	/>
<path fill="#FFE41B" d="M871.152,106.024c0,0,3.273-5.83-1.313-8.719c0,0,6.121,0.958,6.602,6.78c0,0,1.491-6.335,3.814-8.015
	c0,0,0.807,7.686,2.157,9.014c0,0,3.629-2.706,2.218-7.376c0,0,5.588,7.14,4.061,10.04
	C888.69,107.748,880.06,110.685,871.152,106.024z"/>
<path fill="#BEA330" d="M715.288,310.16c-39.839-34.075-55.967-66.405-56.336-75.569c-0.317-7.866-1.906-22.555,13.879-40.844
	c0.067-0.078,0.42-0.371,0.761-0.285c0.789,0.198,1.236,1.114,1.562,0.741c0.212-0.245-0.323-1.144-0.478-1.792
	c-0.085-0.362,0.033-0.797,0.156-0.935c2.243-2.45,4.794-4.954,7.694-7.501c3.319-2.913,5.424-4.547,8.354-6.366
	c0.396-0.247,1.478-0.74,1.866-0.97c0.426-0.251,1.779,1.198,2.194,0.967c0.247-0.137-0.524-1.285-0.177-2.05
	c0.213-0.473,1.247-0.931,1.691-1.153c9.372-4.696,15.506-4.278,15.506-4.278l55.605,104.87L715.288,310.16z"/>
<path fill="#FFE41B" d="M715.45,310.24c0.685,0.116-38.874-33.672-51.422-69.383l-0.006,0.009c-0.003-0.014-0.006-0.026-0.008-0.039
	c0,0-10.08-23.765,9.046-43.083c0.337-0.344,0.714-0.699,1.584-0.397c0.137,0.047,0.723,0.539,1.343,1.25
	c7.945,9.108,36.695,50.333,37.451,49.556c0.704-0.726-30.488-44.133-35.578-53.03c-0.535-0.933-0.57-1.175-0.49-1.45
	c0.093-0.313,0.249-0.56,0.489-0.786c3.962-3.737,9.844-9.183,15.125-12.843c0.438-0.307,0.642-0.523,1.313-0.527
	c0.078,0.001,0.495,0.039,1.192,0.913c6.48,8.136,37.212,52.998,37.823,52.601c0.656-0.426-28.859-43.46-34.895-53.613
	c0,0-0.816-1.335-0.71-1.942c0.146-0.849,0.451-1.121,0.966-1.434c3.708-2.253,8.965-3.761,13.287-5.916
	c4.362-2.176,15.957,10.24,24.552,20.544c3.966,4.804,7.407,9.229,9.081,11.408c0.69,0.909,1.08,1.433,1.08,1.433
	s-0.029-0.045-0.085-0.131c0.057,0.074,0.09,0.118,0.089,0.12c10.602,13.75,22.926,32.424,36.334,57.66
	c0,0,7.173,25.889-26.416,45.297c0,0-1.765,0.94-9.524,3.777c-6.757,2.468-15.935,4.521-22.633,4.146c0,0-2.799,0.301-9.067-4.164
	C715.434,310.256,715.459,310.263,715.45,310.24z"/>
<path opacity="0.1" fill="#FFFFFF" d="M757.545,231.71c0,0-11.688-14.757-17.658,34.045c-1.642,13.415-35.854,36.403-11.125,40.227
	c0,0,25.711,0.78,41.382-23.705C770.144,282.276,782.216,269.383,757.545,231.71z"/>
<path fill="#E24F25" d="M766.084,377.329c0,0,15.946,7.387,27.23,10.241c0,0-3.057,40.029-22.343,45.178
	c0,0-11.697,1.371-18.103-7.938c0,0-22.818,3.927-26.581-13.48c0,0-14.175-5.513-12.942-12.954c0.02-0.121,0.585-3.062,0.613-3.184
	c0.221-0.949,0.155,0.889,0.943-0.113C722.034,386.027,766.084,377.329,766.084,377.329z"/>
<path fill="#F26922" d="M766.641,374.444c0,0,14.11,7.031,25.395,9.886c0,0-1.221,40.386-20.507,45.534
	c0,0-11.695,1.369-18.103-7.939c0,0-22.817,3.927-26.581-13.479c0,0-18.514-7.202-11.384-16.252
	C722.593,383.143,766.641,374.444,766.641,374.444z"/>
<path fill="#E24F25" d="M886.955,394.262c0,0-17.342,2.836-28.979,2.557c0,0-7.801,39.381,9.396,49.517
	c0,0,10.898,4.461,19.569-2.787c0,0,20.928,9.906,29.225-5.851c0,0,15.134-1.508,15.943-9.006c0.015-0.122,0.258-3.107,0.264-3.231
	c0.043-0.976-0.387,0.815-0.878-0.362C927.052,414.465,886.955,394.262,886.955,394.262z"/>
<path fill="#F26922" d="M887.193,391.333c0,0-15.48,2.985-27.115,2.706c0,0-9.666,39.231,7.532,49.367c0,0,10.898,4.46,19.567-2.788
	c0,0,20.927,9.907,29.224-5.851c0,0,19.768-1.969,15.329-12.6C927.292,411.536,887.193,391.333,887.193,391.333z"/>
<path fill="#FFE41B" d="M782.632,190.418c0,0,19.513,55.905-7.806,65.525c-48.217,16.981-45.726,80.533-45.726,80.533
	s-4.174,27.409,22.691,52.096c26.861,24.686,73.497,28.738,121.235,29.467c47.738,0.726,77.145-10.346,110.724-29.226
	c33.581-18.877,38.119-47.556,39.39-74.421c1.271-26.863-6.716-57.358-26.321-88.398c-19.603-31.04-42.291-8.532-42.291-8.532
	l-31.537,14.823c5.989-17.608,20.062-53.196,10.44-80.605c-9.622-27.409-30.447-46.925-70.024-46.939
	c-35.034-0.012-52.369,22.994-58.401,32.855c-18.874,30.855-12.383,47.909-12.383,47.909"/>
<linearGradient id="SVGID_1_" gradientUnits="userSpaceOnUse" x1="-183.6396" y1="283.9541" x2="-171.8854" y2="407.9091" gradientTransform="matrix(1 0 0 1 1056 0)">
	<stop  offset="0" style="stop-color:#FFFFFF"/>
	<stop  offset="1" style="stop-color:#000000"/>
</linearGradient>
<path opacity="0.2" fill="url(#SVGID_1_)" d="M782.632,190.418c0,0,19.513,55.905-7.806,65.525
	c-48.217,16.981-45.726,80.533-45.726,80.533s-4.174,27.409,22.691,52.096c26.861,24.686,73.497,28.738,121.235,29.467
	c47.738,0.726,77.145-10.346,110.724-29.226c33.581-18.877,38.119-47.556,39.39-74.421c1.271-26.863-6.716-57.358-26.321-88.398
	c-19.603-31.04-42.291-8.532-42.291-8.532l-31.537,14.823c5.989-17.608,20.062-53.196,10.44-80.605
	c-9.622-27.409-30.447-46.925-70.024-46.939c-35.034-0.012-52.369,22.994-58.401,32.855c-18.874,30.855-12.383,47.909-12.383,47.909
	"/>
<path fill="#E24F25" d="M877.026,236.171c0,0-6.866,13.508-25.7,19.418c-18.833,5.909-27.771,5.615-43.23,5.656
	c-15.457,0.041-29.639-4.259-37.022-7.745c-7.382-3.487-12.169-15.074-12.39-19.483c-0.224-4.408,21.312,8.613,21.312,8.613
	l35.271-2.357l47.577-3.077L877.026,236.171z"/>
<path fill="#F15A22" d="M767.792,216.382c0,0-11.771,11.587-8.551,19.789c3.219,8.204,13.165,10.973,24.239,12.1
	c11.074,1.128,45.979-1.013,71.49-7.273l8.772-2.064l-71.139-18.04L767.792,216.382z"/>
<path fill="#E24F25" d="M767.635,216.662c0,0-12.77-2.168-15.292-9.909c-2.525-7.74,1.944-17.743,6.488-23.128
	c0,0,2.279-2.099,5.894-3.865c3.618-1.767,6.394-1.785,6.394-1.785l8.839,2.871l16.069,12.296l8.499,10.938l11.443,13.462
	l7.907,8.161l9.593,4.628l12.703,3.298L860.057,236h11.58l4.48,0.684c0,0-2.724,4.059-29.163,1.368c0,0-18.726-2.281-34.49-8.77
	C796.704,222.792,780.634,219.146,767.635,216.662z"/>
<path fill="#F26922" d="M798.806,179.428c0,0,11.19-8.918,19.688-4.375c8.496,4.543,10.77,7.573,26.08,22.127
	c15.313,14.555,24.736,25.662,24.736,25.662s11.778,11.526,6.227,14.808c-5.553,3.281-29.197,0.336-43.076-5.3
	c-13.884-5.638-21.455-15.398-29.615-26.756c-8.164-11.357-19.017-21.118-25.999-24.735c-6.983-3.618-12.116-1.094-12.116-1.094
	s5.552-4.208,16.154,0.252C791.486,184.476,793.758,182.372,798.806,179.428z"/>
<path fill="#F6851F" d="M807.652,178.363c0,0,3.421-4.457,8.415-1.258c4.268,2.735,1.847,8.127-4.354,10.932
	c-6.139,2.776-13.543,2.322-19.832,1.064c0,0-4.738-4.043-9.285-6.771C782.596,182.329,794.855,188.229,807.652,178.363z"/>
<path fill-rule="evenodd" clip-rule="evenodd" fill="#F36B27" d="M773.013,225.895c0,0-10.218-2.487-12.4,4.43
	c-2.184,6.917,13.816,15.771,25.512,15.886c11.696,0.115,42.76-3.691,27.432-8.621C798.229,232.66,773.013,225.895,773.013,225.895z
	"/>
<path fill-rule="evenodd" clip-rule="evenodd" fill="#FDE923" d="M839.606,111.596c0,0-14.216,4.919-14.216,13.846
	c0,10.804,24.212,9.645,51.467,4.973s29.916-4.613,19.935-12.159c-6.717-5.08-17.215-11.933-32.357-11.765
	C857.081,106.571,851.208,107.018,839.606,111.596z"/>
<g opacity="0.25">
	<path fill="#F1E4EB" d="M873.136,171.94c-5.517,13.164-16.476,20.39-26.18,16.378c-9.706-4.013-12.625-17.512-7.109-30.676
		c5.515-13.164,17.373-21.006,27.077-16.994C876.631,144.66,878.649,158.777,873.136,171.94z"/>
	<path fill="#F1E4EB" d="M873.136,171.94c-5.517,13.164-16.476,20.39-26.18,16.378c-9.706-4.013-12.625-17.512-7.109-30.676
		c5.515-13.164,17.373-21.006,27.077-16.994C876.631,144.66,878.649,158.777,873.136,171.94z"/>
	<path fill="#F1E4EB" d="M873.136,171.94c-5.517,13.164-16.476,20.39-26.18,16.378c-9.706-4.013-12.625-17.512-7.109-30.676
		c5.515-13.164,17.373-21.006,27.077-16.994C876.631,144.66,878.649,158.777,873.136,171.94z"/>
	<path fill="#F1E4EB" d="M873.136,171.94c-5.517,13.164-16.476,20.39-26.18,16.378c-9.706-4.013-12.625-17.512-7.109-30.676
		c5.515-13.164,17.373-21.006,27.077-16.994C876.631,144.66,878.649,158.777,873.136,171.94z"/>
	<path fill="#F1E4EB" d="M873.136,171.94c-5.517,13.164-16.476,20.39-26.18,16.378c-9.706-4.013-12.625-17.512-7.109-30.676
		c5.515-13.164,17.373-21.006,27.077-16.994C876.631,144.66,878.649,158.777,873.136,171.94z"/>
	<path fill="#F1E4EB" d="M873.136,171.94c-5.517,13.164-16.476,20.39-26.18,16.378c-9.706-4.013-12.625-17.512-7.109-30.676
		c5.515-13.164,17.373-21.006,27.077-16.994C876.631,144.66,878.649,158.777,873.136,171.94z"/>
	<path fill="#F1E4EB" d="M873.136,171.94c-5.517,13.164-16.476,20.39-26.18,16.378c-9.706-4.013-12.625-17.512-7.109-30.676
		c5.515-13.164,17.373-21.006,27.077-16.994C876.631,144.66,878.649,158.777,873.136,171.94z"/>
	<path fill="#F1E4EB" d="M873.136,171.94c-5.517,13.164-16.476,20.39-26.18,16.378c-9.706-4.013-12.625-17.512-7.109-30.676
		c5.515-13.164,17.373-21.006,27.077-16.994C876.631,144.66,878.649,158.777,873.136,171.94z"/>
	<path fill="#F1E4EB" d="M873.136,171.94c-5.517,13.164-16.476,20.39-26.18,16.378c-9.706-4.013-12.625-17.512-7.109-30.676
		c5.515-13.164,17.373-21.006,27.077-16.994C876.631,144.66,878.649,158.777,873.136,171.94z"/>
	<path fill="#F1E4EB" d="M873.136,171.94c-5.517,13.164-16.476,20.39-26.18,16.378c-9.706-4.013-12.625-17.512-7.109-30.676
		c5.515-13.164,17.373-21.006,27.077-16.994C876.631,144.66,878.649,158.777,873.136,171.94z"/>
	<path fill="#F1E4EB" d="M873.136,171.94c-5.517,13.164-16.476,20.39-26.18,16.378c-9.706-4.013-12.625-17.512-7.109-30.676
		c5.515-13.164,17.373-21.006,27.077-16.994C876.631,144.66,878.649,158.777,873.136,171.94z"/>
	<path fill="#F1E4EB" d="M873.136,171.94c-5.517,13.164-16.476,20.39-26.18,16.378c-9.706-4.013-12.625-17.512-7.109-30.676
		c5.515-13.164,17.373-21.006,27.077-16.994C876.631,144.66,878.649,158.777,873.136,171.94z"/>
	<path fill="#F1E4EB" d="M873.136,171.94c-5.517,13.164-16.476,20.39-26.18,16.378c-9.706-4.013-12.625-17.512-7.109-30.676
		c5.515-13.164,17.373-21.006,27.077-16.994C876.631,144.66,878.649,158.777,873.136,171.94z"/>
	<path fill="#F1E4EB" d="M873.136,171.94c-5.517,13.164-16.476,20.39-26.18,16.378c-9.706-4.013-12.625-17.512-7.109-30.676
		c5.515-13.164,17.373-21.006,27.077-16.994C876.631,144.66,878.649,158.777,873.136,171.94z"/>
	<path fill="#F1E4EB" d="M873.136,171.94c-5.517,13.164-16.476,20.39-26.18,16.378c-9.706-4.013-12.625-17.512-7.109-30.676
		c5.515-13.164,17.373-21.006,27.077-16.994C876.631,144.66,878.649,158.777,873.136,171.94z"/>
	<path fill="#F1E4EB" d="M873.136,171.94c-5.517,13.164-16.476,20.39-26.18,16.378c-9.706-4.013-12.625-17.512-7.109-30.676
		c5.515-13.164,17.373-21.006,27.077-16.994C876.631,144.66,878.649,158.777,873.136,171.94z"/>
	<path fill="#F1E4EB" d="M873.136,171.94c-5.517,13.164-16.476,20.39-26.18,16.378c-9.706-4.013-12.625-17.512-7.109-30.676
		c5.515-13.164,17.373-21.006,27.077-16.994C876.631,144.66,878.649,158.777,873.136,171.94z"/>
	<path fill="#F1E4EB" d="M873.136,171.94c-5.517,13.164-16.476,20.39-26.18,16.378c-9.706-4.013-12.625-17.512-7.109-30.676
		c5.515-13.164,17.373-21.006,27.077-16.994C876.631,144.66,878.649,158.777,873.136,171.94z"/>
	<path fill="#F1E4EB" d="M873.136,171.94c-5.517,13.164-16.476,20.39-26.18,16.378c-9.706-4.013-12.625-17.512-7.109-30.676
		c5.515-13.164,17.373-21.006,27.077-16.994C876.631,144.66,878.649,158.777,873.136,171.94z"/>
	<path fill="#F1E4EB" d="M873.136,171.94c-5.517,13.164-16.476,20.39-26.18,16.378c-9.706-4.013-12.625-17.512-7.109-30.676
		c5.515-13.164,17.373-21.006,27.077-16.994C876.631,144.66,878.649,158.777,873.136,171.94z"/>
	<path fill="#F1E4EB" d="M873.136,171.94c-5.517,13.164-16.476,20.39-26.18,16.378c-9.706-4.013-12.625-17.512-7.109-30.676
		c5.515-13.164,17.373-21.006,27.077-16.994C876.631,144.66,878.649,158.777,873.136,171.94z"/>
	<path fill="#F1E4EB" d="M873.136,171.94c-5.517,13.164-16.476,20.39-26.18,16.378c-9.706-4.013-12.625-17.512-7.109-30.676
		c5.515-13.164,17.373-21.006,27.077-16.994C876.631,144.66,878.649,158.777,873.136,171.94z"/>
	<path fill="#F1E4EB" d="M873.136,171.94c-5.517,13.164-16.476,20.39-26.18,16.378c-9.706-4.013-12.625-17.512-7.109-30.676
		c5.515-13.164,17.373-21.006,27.077-16.994C876.631,144.66,878.649,158.777,873.136,171.94z"/>
	<path fill="#F1E4EB" d="M873.136,171.94c-5.517,13.164-16.476,20.39-26.18,16.378c-9.706-4.013-12.625-17.512-7.109-30.676
		c5.515-13.164,17.373-21.006,27.077-16.994C876.631,144.66,878.649,158.777,873.136,171.94z"/>
	<path fill="#F1E4EB" d="M873.136,171.94c-5.517,13.164-16.476,20.39-26.18,16.378c-9.706-4.013-12.625-17.512-7.109-30.676
		c5.515-13.164,17.373-21.006,27.077-16.994C876.631,144.66,878.649,158.777,873.136,171.94z"/>
	<path fill="#F1E4EB" d="M873.136,171.94c-5.517,13.164-16.476,20.39-26.18,16.378c-9.706-4.013-12.625-17.512-7.109-30.676
		c5.515-13.164,17.373-21.006,27.077-16.994C876.631,144.66,878.649,158.777,873.136,171.94z"/>
	<path fill="#F1E4EB" d="M873.136,171.94c-5.517,13.164-16.476,20.39-26.18,16.378c-9.706-4.013-12.625-17.512-7.109-30.676
		c5.515-13.164,17.373-21.006,27.077-16.994C876.631,144.66,878.649,158.777,873.136,171.94z"/>
	<path fill="#F1E4EB" d="M873.136,171.94c-5.517,13.164-16.476,20.39-26.18,16.378c-9.706-4.013-12.625-17.512-7.109-30.676
		c5.515-13.164,17.373-21.006,27.077-16.994C876.631,144.66,878.649,158.777,873.136,171.94z"/>
	<path fill="#F1E4EB" d="M873.136,171.94c-5.517,13.164-16.476,20.39-26.18,16.378c-9.706-4.013-12.625-17.512-7.109-30.676
		c5.515-13.164,17.373-21.006,27.077-16.994C876.631,144.66,878.649,158.777,873.136,171.94z"/>
	<path fill="#F1E4EB" d="M873.136,171.94c-5.517,13.164-16.476,20.39-26.18,16.378c-9.706-4.013-12.625-17.512-7.109-30.676
		c5.515-13.164,17.373-21.006,27.077-16.994C876.631,144.66,878.649,158.777,873.136,171.94z"/>
	<path fill="#F1E4EB" d="M873.136,171.94c-5.517,13.164-16.476,20.39-26.18,16.378c-9.706-4.013-12.625-17.512-7.109-30.676
		c5.515-13.164,17.373-21.006,27.077-16.994C876.631,144.66,878.649,158.777,873.136,171.94z"/>
	<path fill="#F1E4EB" d="M873.136,171.94c-5.517,13.164-16.476,20.39-26.18,16.378c-9.706-4.013-12.625-17.512-7.109-30.676
		c5.515-13.164,17.373-21.006,27.077-16.994C876.631,144.66,878.649,158.777,873.136,171.94z"/>
	<path fill="#F1E4EB" d="M873.136,171.94c-5.517,13.164-16.476,20.39-26.18,16.378c-9.706-4.013-12.625-17.512-7.109-30.676
		c5.515-13.164,17.373-21.006,27.077-16.994C876.631,144.66,878.649,158.777,873.136,171.94z"/>
	<path fill="#F1E4EB" d="M873.136,171.94c-5.517,13.164-16.476,20.39-26.18,16.378c-9.706-4.013-12.625-17.512-7.109-30.676
		c5.515-13.164,17.373-21.006,27.077-16.994C876.631,144.66,878.649,158.777,873.136,171.94z"/>
	<path fill="#F1E4EB" d="M873.136,171.94c-5.517,13.164-16.476,20.39-26.18,16.378c-9.706-4.013-12.625-17.512-7.109-30.676
		c5.515-13.164,17.373-21.006,27.077-16.994C876.631,144.66,878.649,158.777,873.136,171.94z"/>
	<path fill="#F1E4EB" d="M873.136,171.94c-5.517,13.164-16.476,20.39-26.18,16.378c-9.706-4.013-12.625-17.512-7.109-30.676
		c5.515-13.164,17.373-21.006,27.077-16.994C876.631,144.66,878.649,158.777,873.136,171.94z"/>
	<path fill="#F1E4EB" d="M873.136,171.94c-5.517,13.164-16.476,20.39-26.18,16.378c-9.706-4.013-12.625-17.512-7.109-30.676
		c5.515-13.164,17.373-21.006,27.077-16.994C876.631,144.66,878.649,158.777,873.136,171.94z"/>
	<path fill="#BEA330" d="M873.136,171.94c-5.517,13.164-16.476,20.39-26.18,16.378c-9.706-4.013-12.625-17.512-7.109-30.676
		c5.515-13.164,17.373-21.006,27.077-16.994C876.631,144.66,878.649,158.777,873.136,171.94z"/>
</g>
<path fill="#FFFFFF" d="M870.864,171.003c-4.813,11.48-15.491,17.987-23.855,14.529c-8.364-3.458-11.247-15.568-6.436-27.051
	c4.807-11.481,15.489-17.987,23.854-14.528C872.792,147.41,875.673,159.521,870.864,171.003z"/>
<path fill="#302F2B" d="M867.713,170.084c-2.735,9.757-9.756,16.337-15.682,14.697s-8.512-10.878-5.772-20.633
	c2.733-9.757,9.754-16.338,15.681-14.698C867.867,151.089,870.451,160.329,867.713,170.084z"/>
<path fill="#FFFFFF" d="M850.187,164.109c1.985,1.84,6.149,0.61,9.302-2.747c3.154-3.358,4.099-7.57,2.113-9.41
	c-1.986-1.84-6.151-0.609-9.303,2.747C849.147,158.057,848.202,162.27,850.187,164.109z"/>
<path opacity="0.25" fill="#BEA330" d="M810.753,163.584c-5.607,10.74-16.252,14.998-18.065,9.257
	c-1.237-3.912,0.46-11.558,3.066-18.849c1.219-3.409,2.865-6.993,4.729-9.948c5.848-9.277,13.817-14.519,16.306-8.895
	c2.003,4.526,0.812,12.105-1.766,18.844C813.602,157.716,812.028,161.141,810.753,163.584z"/>
<path fill="#FFFFFF" d="M807.928,164.488c-5.885,9.332-12.135,12.215-13.962,6.441c-1.829-5.775,1.458-18.022,7.342-27.353
	c5.884-9.333,12.136-12.217,13.962-6.441C817.096,142.909,813.811,155.155,807.928,164.488z"/>
<path fill="#302F2B" d="M807.04,163.987c-4.62,7.148-9.478,9.459-10.841,5.162c-1.363-4.298,1.28-13.577,5.906-20.723
	c4.62-7.148,9.476-9.461,10.843-5.161C814.309,147.562,811.667,156.84,807.04,163.987z"/>
<path fill="#FFFFFF" d="M803.89,153.003c1.318,0.425,3.902-1.417,5.771-4.108c1.872-2.695,2.32-5.221,1.004-5.646
	c-1.318-0.423-3.905,1.417-5.773,4.11C803.019,150.052,802.573,152.579,803.89,153.003z"/>
<path opacity="0.1" fill="#BEA330" d="M771.892,259.56c0,0,25.636,8.181,54.115,6.107c0,0-20.719,12.547-36.608,11.2
	C773.507,275.521,773.053,269.083,771.892,259.56z"/>
<path fill="#D0E1EF" d="M1023.141,314.392c-1.271,26.866-5.809,55.544-39.39,74.421c-33.579,18.88-62.985,29.951-110.724,29.226
	c-47.738-0.729-94.374-4.781-121.235-29.467c-26.865-24.687-22.958-52.096-22.958-52.096s-4.095-63.018,44.122-79.999
	c0.891-0.313,7.617,4.873,12.111,7.953c0,0-2.815,26.304-2.472,26.098c0.892,0.274,12.111-23.218,12.111-23.218
	c14.97,1.038,53.019,0.765,66.887-2.069c16.431-3.358,50.625-18.177,54.327-22.335c3.701-4.158,7.366-11.49,7.07-10.621
	c0,0,10.577-6.369,24.078-11.318c5.108-1.872,13.515-8.807,18.889-10.479c6.775-2.11,12.753-1.272,16.173-0.508
	c3.42,0.766,8.727,4.687,12.021,10.153c3.295,5.468,18.366,32.703,20.986,39.426
	C1024.496,283.564,1023.141,314.392,1023.141,314.392z"/>
<path fill="#010101" d="M795.909,267.676l-0.751,23.502c0,0,44.022,3.961,79.013-19.855l29.473-21.418l-35.511,14.018
	C868.132,263.922,828.282,275.775,795.909,267.676z"/>
<path fill="#010101" d="M784.396,264.266l-13.468,22.774c0,0-13.045-16.323-13.465-23.826l13.874-6.455
	C771.337,256.759,779.848,259.488,784.396,264.266z"/>
<g>
	<g>
		<path fill="#CDE0E6" d="M795.809,266.606l0.031,23.798c0,0,43.289,3.665,78.278-20.152l29.499-20.349l-35.548,12.949
			C868.07,262.854,828.489,274.707,795.809,266.606z"/>
		<path fill="#CDE0E6" d="M784.394,263.197l-13.466,22.656c0,0-13.045-16.204-13.465-23.708l13.874-6.454
			C771.337,255.691,779.848,258.418,784.394,263.197z"/>
	</g>
</g>
<path fill="#484848" d="M997.101,379.602c-36.723,30.439-121.032,31.151-164.333,26.579c-75.61-7.984-96.952-38.201-96.952-38.201
	c8.07,18.131,21.087,27.967,40.65,35.984c66.538,27.269,158.934,14.965,193.836-5.286
	C987.216,388.863,997.101,379.602,997.101,379.602z"/>
<polygon opacity="0.25" fill="#010101" points="822.091,312.996 844.617,313.941 845.125,329.242 845.151,349.545 822.245,355.64 
	807.208,349.292 807.542,312.937 "/>
<polygon fill="#CDE0E6" points="820.754,311.661 844.35,312.606 844.082,348.21 822.245,354.305 807.208,348.491 806.687,335.365 
	806.741,312.402 "/>
<rect x="835.418" y="303" fill="#F15A22" width="4" height="10"/>
<rect x="838.418" y="310" fill="#F15A22" width="1" height="7"/>
<path fill="#BEA330" d="M895.213,365.671c47.908,21.284,84.031,21.922,92.461,18.311c7.235-3.102,21.178-7.991,30.89-30.112
	c0.04-0.094,0.152-0.538-0.071-0.81c-0.519-0.627-1.538-0.635-1.341-1.09c0.13-0.296,1.173-0.199,1.823-0.341
	c0.364-0.077,0.705-0.372,0.776-0.542c1.245-3.08,2.408-6.46,3.458-10.175c1.2-4.249,1.769-6.854,2.149-10.281
	c0.052-0.465,0.032-1.651,0.07-2.103c0.045-0.492-1.846-1.091-1.817-1.565c0.019-0.28,1.386-0.08,1.928-0.722
	c0.335-0.395,0.303-1.526,0.313-2.023c0.203-10.481-2.815-15.836-2.815-15.836l-118.593-5.038L895.213,365.671z"/>
<path fill="#FFE41B" d="M895.072,365.559c-0.4-0.568,47.128,20.589,84.761,16.537l-0.005,0.012c0.014-0.004,0.025-0.007,0.039-0.011
	c0,0,25.788-1.134,34.989-26.712c0.165-0.454,0.323-0.947-0.323-1.601c-0.102-0.105-0.797-0.421-1.705-0.674
	c-11.642-3.25-61.228-11.45-60.854-12.468c0.354-0.946,52.961,8.517,63.183,9.281c1.072,0.081,1.307,0.009,1.521-0.181
	c0.243-0.218,0.397-0.467,0.499-0.781c1.668-5.185,4.049-12.837,5.078-19.182c0.088-0.527,0.197-0.804-0.088-1.412
	c-0.035-0.07-0.249-0.431-1.337-0.682c-10.134-2.347-63.857-10.771-63.762-11.491c0.103-0.777,51.652,7.336,63.414,8.41
	c0,0,1.556,0.164,2.059-0.193c0.703-0.497,0.816-0.89,0.878-1.49c0.438-4.316-0.467-9.711-0.382-14.539
	c0.086-4.875-16.112-9.995-29.112-13.315c-6.043-1.51-11.52-2.712-14.206-3.284c-1.118-0.231-1.76-0.358-1.76-0.358
	s0.054,0.007,0.154,0.021c-0.091-0.02-0.146-0.031-0.146-0.03c-16.974-3.647-39.135-6.73-67.686-7.968
	c0,0-26.455,4.672-29.51,43.345c0,0-0.09,1.998,0.691,10.223c0.682,7.161,2.782,16.329,6.002,22.213c0,0,0.934,2.656,7.663,6.393
	C895.064,365.58,895.045,365.559,895.072,365.559z"/>
<path opacity="0.1" fill="#FFFFFF" d="M947.825,293.753c0,0,18.353,4.196-23.124,30.596c-11.401,7.258-17.419,48.034-31.518,27.36
	c0,0-11.773-22.87,3.579-47.555C896.762,304.154,903.201,287.706,947.825,293.753z"/>
<polygon opacity="0.5" fill="#A7DDE8" points="793.739,156.877 783.655,157 780.851,157 779.578,158.697 778.29,162.593 
	776.804,171.141 776.109,175.401 777.696,177.549 779.083,178.144 797.911,183 801.87,183 803.956,182.63 805.641,180.428 
	808.217,171.26 809.307,161.789 808.514,159.435 806.334,158.35 "/>
<polygon opacity="0.5" fill="#A7DDE8" points="866.889,177.724 854.317,171.299 837.304,163.826 833.808,163.559 831.596,166.801 
	827.007,176.662 825.304,182.27 825.9,185.767 833.658,190 857.033,199.784 860.499,200.867 862.43,199.919 865.333,196.168 
	868.583,187.598 870.679,182.604 870.893,179.81 "/>
<path fill="#DEDEDD" d="M869.743,177.62l-32.568-14.936c-1.005-0.448-3.916-1.451-5.724,2.131l-2.669,5.977l-4.479,10.028
	c-0.886,2.367-0.471,5.484,6.413,8.76l26.659,11.685c2.243,0.944,5.456,0.471,6.604-1.834l6.738-15.083
	C871.185,183.3,872.391,178.917,869.743,177.62z M869.062,184.89l-5.97,13.363c-1.021,2.04-3.977,2.411-6.06,1.531l-24.776-10.869
	c-6.402-3.038-6.835-5.83-6.058-7.929l6.334-14.18c1.609-3.17,4.309-2.227,5.243-1.811l30.279,13.868
	C870.518,180.065,869.477,183.96,869.062,184.89z"/>
<path fill="#DEDEDD" d="M778.228,159.755l-2.728,14.313c-0.465,2.533,1.824,4.838,4.186,5.426l16.174,3.605
	c7.477,1.505,8.985-0.827,9.695-3.252l3.874-18.05c0.702-3.952-2.23-4.893-3.305-5.138l-23.082-0.75
	C780.145,155.36,778.482,158.635,778.228,159.755z M783.648,157.916l20.61,0.232c0.997,0.227,3.724,1.091,3.111,4.593l-3.432,16.102
	c-0.636,2.146-1.962,4.206-8.911,2.799l-14.179-3.128c-2.195-0.545-4.338-2.613-3.932-4.858l2.563-13.674
	C779.704,158.99,780.955,157.401,783.648,157.916z"/>
</svg>
