<?xml version="1.0" encoding="utf-8"?>
<!-- Generator: Adobe Illustrator 15.1.0, SVG Export Plug-In  -->
<!DOCTYPE svg PUBLIC "-//W3C//DTD SVG 1.1//EN" "http://www.w3.org/Graphics/SVG/1.1/DTD/svg11.dtd" [
	<!ENTITY ns_flows "http://ns.adobe.com/Flows/1.0/">
]>
<svg version="1.1"
	 xmlns="http://www.w3.org/2000/svg" xmlns:xlink="http://www.w3.org/1999/xlink" xmlns:a="http://ns.adobe.com/AdobeSVGViewerExtensions/3.0/"
	 x="0px" y="0px" width="409px" height="214px" viewBox="0 0 409 214" enable-background="new 0 0 409 214" xml:space="preserve">
<defs>
</defs>
<rect x="144" y="2" fill="#FFFFFF" width="242" height="161"/>
<path fill="#7B7B7B" d="M392,1.011C392,0.453,391.548,0,390.989,0H139.011C138.452,0,138,0.453,138,1.011v164.978
	c0,0.559,0.452,1.011,1.011,1.011h251.979c0.559,0,1.011-0.453,1.011-1.011V1.011z M382,155.989c0,0.559-0.452,1.011-1.011,1.011
	H149.011c-0.559,0-1.011-0.453-1.011-1.011V11.011c0-0.559,0.452-1.011,1.011-1.011h231.979c0.559,0,1.011,0.453,1.011,1.011
	V155.989z"/>
<rect x="239" y="166" fill="#676767" width="51" height="43"/>
<polygon fill="#676767" points="222,214 308,214 307,209 223,209 "/>
<rect x="174" y="14.5" fill-rule="evenodd" clip-rule="evenodd" fill="#3D3480" width="6" height="15"/>
<rect x="182" y="14.5" fill-rule="evenodd" clip-rule="evenodd" fill="#3D3480" width="6" height="15"/>
<rect x="190" y="14.5" fill-rule="evenodd" clip-rule="evenodd" fill="#3D3480" width="6" height="15"/>
<g>
	<path fill-rule="evenodd" clip-rule="evenodd" fill="#DEDEDD" d="M222,28c0,0.552-0.448,1-1,1h-18c-0.552,0-1-0.448-1-1v-5
		c0-0.552,0.448-1,1-1h18c0.552,0,1,0.448,1,1V28z"/>
</g>
<g>
	<path fill-rule="evenodd" clip-rule="evenodd" fill="#DEDEDD" d="M245,28c0,0.552-0.448,1-1,1h-18c-0.552,0-1-0.448-1-1v-5
		c0-0.552,0.448-1,1-1h18c0.552,0,1,0.448,1,1V28z"/>
</g>
<g>
	<path fill-rule="evenodd" clip-rule="evenodd" fill="#DEDEDD" d="M268,28c0,0.552-0.448,1-1,1h-18c-0.552,0-1-0.448-1-1v-5
		c0-0.552,0.448-1,1-1h18c0.552,0,1,0.448,1,1V28z"/>
</g>
<g>
	<path fill-rule="evenodd" clip-rule="evenodd" fill="#DEDEDD" d="M290,28c0,0.552-0.448,1-1,1h-18c-0.552,0-1-0.448-1-1v-5
		c0-0.552,0.448-1,1-1h18c0.552,0,1,0.448,1,1V28z"/>
</g>
<g>
	<path fill-rule="evenodd" clip-rule="evenodd" fill="#DEDEDD" d="M354,28c0,0.552-0.447,1-1,1h-60c-0.552,0-1-0.448-1-1v-5
		c0-0.552,0.448-1,1-1h60c0.553,0,1,0.448,1,1V28z"/>
</g>
<g opacity="0.75">
	<path fill-rule="evenodd" clip-rule="evenodd" fill="#DEDEDD" d="M354,60c0,1.657-1.343,3-3,3H177c-1.657,0-3-1.343-3-3V39
		c0-1.657,1.343-3,3-3h174c1.657,0,3,1.343,3,3V60z"/>
</g>
<g opacity="0.5">
	<path fill-rule="evenodd" clip-rule="evenodd" fill="#DEDEDD" d="M354,90c0,1.657-1.343,3-3,3H177c-1.657,0-3-1.343-3-3V69
		c0-1.657,1.343-3,3-3h174c1.657,0,3,1.343,3,3V90z"/>
</g>
<g opacity="0.75">
	<path fill-rule="evenodd" clip-rule="evenodd" fill="#DEDEDD" d="M354,120c0,1.657-1.343,3-3,3H177c-1.657,0-3-1.343-3-3V99
		c0-1.657,1.343-3,3-3h174c1.657,0,3,1.343,3,3V120z"/>
</g>
<g opacity="0.5">
	<path fill-rule="evenodd" clip-rule="evenodd" fill="#DEDEDD" d="M354,150c0,1.657-1.343,3-3,3H177c-1.657,0-3-1.343-3-3v-21
		c0-1.657,1.343-3,3-3h174c1.657,0,3,1.343,3,3V150z"/>
</g>
<rect x="180" y="43" fill-rule="evenodd" clip-rule="evenodd" fill="#9E9E9E" width="125" height="2"/>
<rect x="180" y="49" fill-rule="evenodd" clip-rule="evenodd" fill="#9E9E9E" width="113" height="2"/>
<rect x="180" y="55" fill-rule="evenodd" clip-rule="evenodd" fill="#9E9E9E" width="134" height="2"/>
<rect x="180" y="73" opacity="0.75" fill-rule="evenodd" clip-rule="evenodd" fill="#9E9E9E" width="125" height="2"/>
<rect x="180" y="79" opacity="0.75" fill-rule="evenodd" clip-rule="evenodd" fill="#9E9E9E" width="113" height="2"/>
<rect x="180" y="85" opacity="0.75" fill-rule="evenodd" clip-rule="evenodd" fill="#9E9E9E" width="134" height="2"/>
<rect x="180" y="103" opacity="0.75" fill-rule="evenodd" clip-rule="evenodd" fill="#9E9E9E" width="125" height="2"/>
<rect x="180" y="109" opacity="0.75" fill-rule="evenodd" clip-rule="evenodd" fill="#9E9E9E" width="113" height="2"/>
<rect x="180" y="115" opacity="0.75" fill-rule="evenodd" clip-rule="evenodd" fill="#9E9E9E" width="134" height="2"/>
<rect x="180" y="132" opacity="0.75" fill-rule="evenodd" clip-rule="evenodd" fill="#9E9E9E" width="125" height="2"/>
<rect x="180" y="138" opacity="0.75" fill-rule="evenodd" clip-rule="evenodd" fill="#9E9E9E" width="113" height="2"/>
<rect x="180" y="144" opacity="0.75" fill-rule="evenodd" clip-rule="evenodd" fill="#9E9E9E" width="134" height="2"/>
<rect x="30" y="107" fill="#FFFFFF" width="155" height="92"/>
<path fill="#7B7B7B" d="M190,205V98.5c0-1.104-0.896-1.5-2-1.5H27c-1.104,0-2,0.396-2,1.5V205H190z M182,196H35v-88h147V196z"/>
<path fill="#676767" d="M122,205l-1,2c0,0-0.896,2-2,2H97c-1.104,0-2-2-2-2l-1-2H0v6.5c0,1.104,0.896,2.5,2,2.5h212
	c1.104,0,2-1.396,2-2.5V205H122z"/>
<path fill-rule="evenodd" clip-rule="evenodd" fill="#FFFFFF" d="M406,211c0,1.104-0.896,2-2,2h-83c-1.104,0-2-0.896-2-2V91
	c0-1.104,0.896-2,2-2h83c1.104,0,2,0.896,2,2V211z"/>
<path fill-rule="evenodd" clip-rule="evenodd" fill="#7B7B7B" d="M407.57,85h-90.185c-1.104,0-2.386,0.396-2.386,1.5v124.752
	c0,1.104,1.282,2.748,2.386,2.748h90.185c1.105,0,1.43-1.644,1.43-2.748V86.5C409,85.396,408.676,85,407.57,85z M361.896,209.881
	c-1.781,0-3.225-1.444-3.225-3.226s1.443-3.226,3.225-3.226s3.227,1.444,3.227,3.226S363.678,209.881,361.896,209.881z M401,197.5
	c0,1.104-0.498,2.5-1.604,2.5h-74c-1.104,0-2.396-1.396-2.396-2.5v-103c0-1.104,1.293-1.5,2.396-1.5h74
	c1.105,0,1.604,0.396,1.604,1.5V197.5z"/>
<rect x="38" y="110.5" fill-rule="evenodd" clip-rule="evenodd" fill="#3D3480" width="4.667" height="11.667"/>
<rect x="44.223" y="110.5" fill-rule="evenodd" clip-rule="evenodd" fill="#3D3480" width="4.666" height="11.667"/>
<rect x="50.444" y="110.5" fill-rule="evenodd" clip-rule="evenodd" fill="#3D3480" width="4.667" height="11.667"/>
<g>
	<path fill-rule="evenodd" clip-rule="evenodd" fill="#DEDEDD" d="M75,122c0,0.552-0.448,1-1,1H61c-0.552,0-1-0.448-1-1v-4
		c0-0.552,0.448-1,1-1h13c0.552,0,1,0.448,1,1V122z"/>
</g>
<g>
	<path fill-rule="evenodd" clip-rule="evenodd" fill="#DEDEDD" d="M93,122c0,0.552-0.448,1-1,1H79c-0.552,0-1-0.448-1-1v-4
		c0-0.552,0.448-1,1-1h13c0.552,0,1,0.448,1,1V122z"/>
</g>
<g>
	<path fill-rule="evenodd" clip-rule="evenodd" fill="#DEDEDD" d="M110,122c0,0.552-0.448,1-1,1H96c-0.552,0-1-0.448-1-1v-4
		c0-0.552,0.448-1,1-1h13c0.552,0,1,0.448,1,1V122z"/>
</g>
<g>
	<path fill-rule="evenodd" clip-rule="evenodd" fill="#DEDEDD" d="M128,122c0,0.552-0.448,1-1,1h-13c-0.552,0-1-0.448-1-1v-4
		c0-0.552,0.448-1,1-1h13c0.552,0,1,0.448,1,1V122z"/>
</g>
<g>
	<path fill-rule="evenodd" clip-rule="evenodd" fill="#DEDEDD" d="M178,122c0,0.552-0.448,1-1,1h-46c-0.552,0-1-0.448-1-1v-4
		c0-0.552,0.448-1,1-1h46c0.552,0,1,0.448,1,1V122z"/>
</g>
<g opacity="0.75">
	<path fill-rule="evenodd" clip-rule="evenodd" fill="#DEDEDD" d="M178,145c0,1.657-1.343,3-3,3H41c-1.657,0-3-1.343-3-3v-15
		c0-1.657,1.343-3,3-3h134c1.657,0,3,1.343,3,3V145z"/>
</g>
<g opacity="0.5">
	<path fill-rule="evenodd" clip-rule="evenodd" fill="#DEDEDD" d="M178,167c0,1.657-1.343,3-3,3H41c-1.657,0-3-1.343-3-3v-15
		c0-1.657,1.343-3,3-3h134c1.657,0,3,1.343,3,3V167z"/>
</g>
<g opacity="0.75">
	<path fill-rule="evenodd" clip-rule="evenodd" fill="#DEDEDD" d="M178,190c0,1.657-1.343,3-3,3H41c-1.657,0-3-1.343-3-3v-15
		c0-1.657,1.343-3,3-3h134c1.657,0,3,1.343,3,3V190z"/>
</g>
<rect x="42" y="131" fill-rule="evenodd" clip-rule="evenodd" fill="#9E9E9E" width="120" height="2"/>
<rect x="42" y="137" fill-rule="evenodd" clip-rule="evenodd" fill="#9E9E9E" width="108" height="2"/>
<rect x="42" y="143" fill-rule="evenodd" clip-rule="evenodd" fill="#9E9E9E" width="128" height="2"/>
<rect x="42" y="154" fill-rule="evenodd" clip-rule="evenodd" fill="#9E9E9E" width="120" height="2"/>
<rect x="42" y="160" fill-rule="evenodd" clip-rule="evenodd" fill="#9E9E9E" width="108" height="2"/>
<rect x="42" y="166" fill-rule="evenodd" clip-rule="evenodd" fill="#9E9E9E" width="128" height="2"/>
<rect x="42" y="176" fill-rule="evenodd" clip-rule="evenodd" fill="#9E9E9E" width="120" height="2"/>
<rect x="42" y="182" fill-rule="evenodd" clip-rule="evenodd" fill="#9E9E9E" width="108" height="2"/>
<rect x="42" y="188" fill-rule="evenodd" clip-rule="evenodd" fill="#9E9E9E" width="128" height="2"/>
<g>
	<defs>
		<path id="SVGID_1_" d="M401,197.5c0,1.104-0.498,2.5-1.604,2.5h-74c-1.104,0-2.396-1.396-2.396-2.5v-103
			c0-1.104,1.293-1.5,2.396-1.5h74c1.105,0,1.604,0.396,1.604,1.5V197.5z"/>
	</defs>
	<clipPath id="SVGID_2_">
		<use xlink:href="#SVGID_1_"  overflow="visible"/>
	</clipPath>
	<g clip-path="url(#SVGID_2_)">
		<rect x="326" y="95.5" fill-rule="evenodd" clip-rule="evenodd" fill="#3D3480" width="4.667" height="11.667"/>
		<rect x="332.223" y="95.5" fill-rule="evenodd" clip-rule="evenodd" fill="#3D3480" width="4.666" height="11.667"/>
		<rect x="338.444" y="95.5" fill-rule="evenodd" clip-rule="evenodd" fill="#3D3480" width="4.667" height="11.667"/>
		<g>
			<path fill-rule="evenodd" clip-rule="evenodd" fill="#DEDEDD" d="M397,107c0,0.552-0.447,1-1,1h-13c-0.553,0-1-0.448-1-1v-4
				c0-0.552,0.447-1,1-1h13c0.553,0,1,0.448,1,1V107z"/>
		</g>
		<g opacity="0.75">
			<path fill-rule="evenodd" clip-rule="evenodd" fill="#DEDEDD" d="M398,130c0,1.657-1.343,3-3,3h-66c-1.657,0-3-1.343-3-3v-15
				c0-1.657,1.343-3,3-3h66c1.657,0,3,1.343,3,3V130z"/>
		</g>
		<g opacity="0.5">
			<path fill-rule="evenodd" clip-rule="evenodd" fill="#DEDEDD" d="M398,153c0,1.657-1.343,3-3,3h-66c-1.657,0-3-1.343-3-3v-15
				c0-1.657,1.343-3,3-3h66c1.657,0,3,1.343,3,3V153z"/>
		</g>
		<g opacity="0.75">
			<path fill-rule="evenodd" clip-rule="evenodd" fill="#DEDEDD" d="M398,177c0,1.657-1.343,3-3,3h-66c-1.657,0-3-1.343-3-3v-15
				c0-1.657,1.343-3,3-3h66c1.657,0,3,1.343,3,3V177z"/>
		</g>
		<g opacity="0.75">
			<rect x="330" y="116" fill-rule="evenodd" clip-rule="evenodd" fill="#9E9E9E" width="61" height="2"/>
			<rect x="330" y="122" fill-rule="evenodd" clip-rule="evenodd" fill="#9E9E9E" width="49" height="2"/>
			<rect x="330" y="128" fill-rule="evenodd" clip-rule="evenodd" fill="#9E9E9E" width="66" height="2"/>
		</g>
		<g opacity="0.75">
			<rect x="330" y="140" fill-rule="evenodd" clip-rule="evenodd" fill="#9E9E9E" width="61" height="2"/>
			<rect x="330" y="146" fill-rule="evenodd" clip-rule="evenodd" fill="#9E9E9E" width="49" height="2"/>
			<rect x="330" y="152" fill-rule="evenodd" clip-rule="evenodd" fill="#9E9E9E" width="66" height="2"/>
		</g>
		<g opacity="0.5">
			<path fill-rule="evenodd" clip-rule="evenodd" fill="#DEDEDD" d="M398,200c0,1.657-1.343,3-3,3h-66c-1.657,0-3-1.343-3-3v-15
				c0-1.657,1.343-3,3-3h66c1.657,0,3,1.343,3,3V200z"/>
		</g>
		<g opacity="0.75">
			<rect x="330" y="187" fill-rule="evenodd" clip-rule="evenodd" fill="#9E9E9E" width="61" height="2"/>
			<rect x="330" y="193" fill-rule="evenodd" clip-rule="evenodd" fill="#9E9E9E" width="49" height="2"/>
			<rect x="330" y="199" fill-rule="evenodd" clip-rule="evenodd" fill="#9E9E9E" width="66" height="2"/>
		</g>
		<g opacity="0.75">
			<rect x="330" y="163" fill-rule="evenodd" clip-rule="evenodd" fill="#9E9E9E" width="61" height="2"/>
			<rect x="330" y="169" fill-rule="evenodd" clip-rule="evenodd" fill="#9E9E9E" width="49" height="2"/>
			<rect x="330" y="175" fill-rule="evenodd" clip-rule="evenodd" fill="#9E9E9E" width="66" height="2"/>
		</g>
	</g>
</g>
</svg>
