<?xml version="1.0" encoding="utf-8"?>
<!-- Generator: Adobe Illustrator 15.1.0, SVG Export Plug-In  -->
<!DOCTYPE svg PUBLIC "-//W3C//DTD SVG 1.1//EN" "http://www.w3.org/Graphics/SVG/1.1/DTD/svg11.dtd" [
	<!ENTITY ns_flows "http://ns.adobe.com/Flows/1.0/">
]>
<svg version="1.1"
	 xmlns="http://www.w3.org/2000/svg" xmlns:xlink="http://www.w3.org/1999/xlink" xmlns:a="http://ns.adobe.com/AdobeSVGViewerExtensions/3.0/"
	 x="0px" y="0px" width="369px" height="255px" viewBox="0 0 369 255" enable-background="new 0 0 369 255" xml:space="preserve">
<defs>
</defs>
<line fill="none" stroke="#2A276A" stroke-width="2.0669" stroke-miterlimit="10" x1="140.63" y1="145.022" x2="129.979" y2="165.319"/>
<line fill="none" stroke="#2A276A" stroke-width="2.0669" stroke-miterlimit="10" x1="84.571" y1="106.335" x2="106.971" y2="96.996"/>
<line fill="none" stroke="#2A276A" stroke-width="2.0669" stroke-miterlimit="10" x1="220.265" y1="148.995" x2="230.586" y2="171.684"/>
<line fill="none" stroke="#2A276A" stroke-width="2.0669" stroke-miterlimit="10" x1="260.69" y1="99.311" x2="283.058" y2="108.938"/>
<circle opacity="0.75" fill-rule="evenodd" clip-rule="evenodd" fill="#DEDEDD" cx="43.61" cy="121.337" r="43.61"/>
<circle opacity="0.75" fill-rule="evenodd" clip-rule="evenodd" fill="#DEDEDD" cx="107.308" cy="202.577" r="43.61"/>
<circle opacity="0.75" fill-rule="evenodd" clip-rule="evenodd" fill="#DEDEDD" cx="249.632" cy="210.924" r="43.61"/>
<circle opacity="0.75" fill-rule="evenodd" clip-rule="evenodd" fill="#DEDEDD" cx="325.619" cy="118.474" r="43.61"/>
<circle opacity="0.75" fill-rule="evenodd" clip-rule="evenodd" fill="#DEDEDD" cx="183.839" cy="78.945" r="78.944"/>
<path fill-rule="evenodd" clip-rule="evenodd" fill="#676767" d="M219.529,83.754c0,0-14.154-14.431-33.663-14.431
	c-19.064,0-37.908,14.431-37.908,14.431l-10.583-4.415V92.3c1.668,0.568,2.887,2.101,2.887,3.962c0,1.876-1.243,3.416-2.936,3.97
	l3.128,8.729h-9.236l3.158-8.804c-1.517-0.644-2.58-2.145-2.58-3.895c0-1.719,1.033-3.18,2.501-3.845V78.055l-15.394-6.422
	l67.728-30.4l62.142,30.784L219.529,83.754z M185.095,76.635c19.623,0,29.246,10.39,29.246,10.39v21.551
	c0,0-10.008,8.08-30.788,8.08c-20.78,0-27.704-8.08-27.704-8.08V87.024C155.849,87.024,165.468,76.635,185.095,76.635z
	 M184.709,112.037c13.603,0,24.628-2.756,24.628-6.157c0-3.399-11.025-6.157-24.628-6.157s-24.631,2.758-24.631,6.157
	C160.078,109.281,171.107,112.037,184.709,112.037z"/>
<g>
	<g>
		<path fill-rule="evenodd" clip-rule="evenodd" fill="#676767" d="M106.417,219.276v-34.957c0,0-4.787-4.008-11.579-4.008
			c-6.791,0-11.578,3.563-11.578,3.563v35.402c0,0,4.787-3.45,11.578-3.45C101.63,215.826,106.417,219.276,106.417,219.276z
			 M131.355,219.276v-34.957c0,0-4.787-4.008-11.579-4.008c-6.791,0-11.578,3.563-11.578,3.563v35.402c0,0,4.787-3.45,11.578-3.45
			C126.568,215.826,131.355,219.276,131.355,219.276z M134.917,187.436h-1.782v33.844H111.76v1.781h-8.906v-1.781H81.479v-33.844
			h-1.782v35.625h21.375v1.781h12.581l-0.111-1.781h21.375V187.436z"/>
	</g>
</g>
<g>
	<g>
		<path fill-rule="evenodd" clip-rule="evenodd" fill="#676767" d="M24.016,101.741v39.188h39.187v-39.188H24.016z M31.141,137.367
			h-3.563v-3.563h3.563V137.367z M31.141,132.024h-3.563v-3.563h3.563V132.024z M31.141,126.679h-3.563v-3.563h3.563V126.679z
			 M31.141,119.554h-3.563v-3.563h3.563V119.554z M31.141,114.211h-3.563v-3.563h3.563V114.211z M31.141,108.867h-3.563v-3.563
			h3.563V108.867z M52.517,137.367H34.703v-14.25h17.813V137.367z M52.517,119.554H34.703v-14.25h17.813V119.554z M59.642,137.367
			h-3.563v-3.563h3.563V137.367z M59.642,132.024h-3.563v-3.563h3.563V132.024z M59.642,126.679h-3.563v-3.563h3.563V126.679z
			 M59.642,119.554h-3.563v-3.563h3.563V119.554z M59.642,114.211h-3.563v-3.563h3.563V114.211z M59.642,108.867h-3.563v-3.563
			h3.563V108.867z"/>
	</g>
</g>
<path fill-rule="evenodd" clip-rule="evenodd" fill="#676767" d="M264.773,230.575v-3.563h-0.045
	c0.018-0.296,0.045-0.59,0.045-0.891v-15.141v-4.453c0-8.361-6.777-15.141-15.142-15.141c-8.359,0-15.141,6.779-15.141,15.141v4.453
	v15.141c0,0.301,0.028,0.595,0.046,0.891h-0.046v3.563c0,0-8.905-0.148-8.905-9.797c0-5.473,2.863-7.885,5.343-8.951v-5.299
	c0-10.329,8.374-18.703,18.703-18.703c10.33,0,18.704,8.374,18.704,18.703v5.299c2.48,1.066,5.344,3.479,5.344,8.951
	C273.679,230.426,264.773,230.575,264.773,230.575z M238.053,230.575h-1.78v-19.594h1.78V230.575z M262.992,230.575h-1.781v-19.594
	h1.781V230.575z"/>
<g>
	<g>
		<path fill-rule="evenodd" clip-rule="evenodd" fill="#676767" d="M338.113,97.914c-2.521,0-7.42,3.563-11.578,3.563
			c-4.157,0-9.352-3.563-11.578-3.563c-15.291,0-24.047,41.118-12.618,41.118c9.65,0,10.948-12.024,24.157-12.024
			c10.689,0,16.961,11.876,24.086,11.876C362.01,138.883,353.402,97.914,338.113,97.914z M314.066,121.07
			c-4.429,0-8.016-3.588-8.016-8.016c0-4.427,3.587-8.015,8.016-8.015c4.425,0,8.016,3.588,8.016,8.015
			C322.082,117.481,318.491,121.07,314.066,121.07z M335.33,116.618c-0.984,0-1.781-0.798-1.781-1.782
			c0-0.984,0.797-1.782,1.781-1.782s1.781,0.797,1.781,1.782C337.111,115.82,336.314,116.618,335.33,116.618z M340.785,121.96
			c-0.984,0-1.78-0.797-1.78-1.781c0-0.985,0.796-1.781,1.78-1.781c0.985,0,1.781,0.796,1.781,1.781
			C342.566,121.163,341.77,121.96,340.785,121.96z M340.785,111.273c-0.984,0-1.78-0.798-1.78-1.781c0-0.985,0.796-1.782,1.78-1.782
			c0.985,0,1.781,0.797,1.781,1.782C342.566,110.476,341.77,111.273,340.785,111.273z M346.129,116.618
			c-0.985,0-1.782-0.798-1.782-1.782c0-0.984,0.797-1.782,1.782-1.782c0.984,0,1.78,0.797,1.78,1.782
			C347.91,115.82,347.114,116.618,346.129,116.618z M314.066,108.602c-2.459,0-4.454,1.994-4.454,4.453
			c0,2.46,1.995,4.454,4.454,4.454s4.453-1.994,4.453-4.454C318.519,110.595,316.525,108.602,314.066,108.602z"/>
	</g>
</g>
</svg>
